<svg xmlns="http://www.w3.org/2000/svg" xmlns:xlink="http://www.w3.org/1999/xlink" width="458" height="207" fill="none"><style><![CDATA[.B{mask:url(#A)}]]></style><mask id="A" maskUnits="userSpaceOnUse" x="0" y="53" width="458" height="154" fill="#000"><path fill="#fff" d="M0 53h458v154H0z"/><use xlink:href="#C"/><use xlink:href="#D"/><use xlink:href="#E"/><use xlink:href="#F"/><use xlink:href="#G"/><use xlink:href="#H"/><path d="M329.6 69l-4.4 54-16.7 1V70l21-1z"/><use xlink:href="#H" x="68.2"/><use xlink:href="#I"/><use xlink:href="#H" x="-249.4" y="67"/><use xlink:href="#J"/><use xlink:href="#K"/><use xlink:href="#L"/><use xlink:href="#K" x="64"/><use xlink:href="#M"/><use xlink:href="#N"/><use xlink:href="#O"/><use xlink:href="#P"/><use xlink:href="#Q"/></mask><g fill="#fff"><use xlink:href="#C"/><use xlink:href="#D"/><use xlink:href="#E"/><use xlink:href="#F"/><use xlink:href="#G"/><use xlink:href="#H"/><path d="M329.6 69l-4.4 54-16.7 1V70l21-1z"/><use xlink:href="#H" x="68.2"/><use xlink:href="#I"/><use xlink:href="#H" x="-249.4" y="67"/><use xlink:href="#J"/><use xlink:href="#K"/><use xlink:href="#L"/><use xlink:href="#K" x="64"/><use xlink:href="#M"/><use xlink:href="#N"/><use xlink:href="#O"/><use xlink:href="#P"/><use xlink:href="#Q"/></g><g stroke="#0da84a" stroke-width="26" stroke-linejoin="round" class="B"><use xlink:href="#C"/><use xlink:href="#D"/><use xlink:href="#E"/><use xlink:href="#F"/><use xlink:href="#G"/><use xlink:href="#H"/><path d="M329.6 69l-4.4 54-16.7 1V70l21-1z"/><use xlink:href="#H" x="68.2"/><use xlink:href="#I"/><use xlink:href="#H" x="-249.4" y="67"/><use xlink:href="#J"/><use xlink:href="#K"/><use xlink:href="#L"/><use xlink:href="#K" x="64"/><use xlink:href="#M"/><use xlink:href="#N"/><use xlink:href="#O"/><use xlink:href="#P"/><use xlink:href="#Q"/></g><path d="M123 63.5l-8-49.2 215-7-6 52.3-200.8 4z" fill="#a6a531"/><path d="M145.7 28.4l-1 19.3-6 .5-.5-19.2 7.5-.6zm20.8-1l-.5 19.2-7.4 1-4.2-10.2L154 48h-6.4V28l7-.5 5.2 10V28l6.7-.4zM183 40c0 1.3-.2 2.4-.6 3.4-.4 1-1 1.8-1.8 2.5-.8.7-1.7 1.2-2.7 1.5-1 .3-2 .5-3.3.6-.5 0-1 0-1.5-.1l-3.3-1-1.4-.6.5-5.8c.8.5 1.7.8 2.7 1 1 .2 2 .3 3 .3h.7c.3 0 .5-.1.7-.1.2-.1.4-.2.6-.3s.2-.4.2-.6c0-.2-.1-.3-.2-.4-.1-.1-.3-.2-.4-.3-.2-.1-.4-.1-.6-.2l-.7-.1h-1c-.8 0-1.6-.1-2.2-.4-.7-.3-1.2-.6-1.7-1-.5-.5-1-1-1.2-1.8-.3-.7-.4-1.4-.5-2.3 0-1 .2-2 .6-3a7 7 0 0 1 1.7-2.3c.7-.6 1.6-1 2.6-1.5s2-.5 3-.6h1.4c.5 0 1 .1 1.5.1.5.1 1 .2 1.4.3l1.3.5-.4 5.8c-.6-.2-1.3-.4-2-.5-.7-.1-1.4-.2-2-.2h-.5c-.2 0-.4 0-.6.1l-.6.1c-.2.1-.4.1-.6.2-.2.1-.3.2-.4.3s-.1.3-.1.5c0 .2.1.4.2.5.2.1.3.2.6.3l.8.1c.3 0 .6 0 .8 0h.8c.2 0 .4 0 .6 0 .8 0 1.4.2 2 .4s1 .6 1.6 1c.4.4.8 1 1 1.6a6 6 0 0 1 .4 2.1zM198.3 27l-.6 6c-.3-.1-.6-.1-.8-.1h-.8c-.7 0-1.4.1-2 .3-.6.2-1.2.5-1.7 1-.5.4-.8 1-1 1.4-.3.6-.4 1.2-.4 2 0 .5.1 1 .3 1.3.2.4.4.6.7 1s.6.4 1 .5.8.1 1.3.1c.3 0 .7-.1 1-.1s.7-.2 1-.3.7-.3 1-.5l1-.5-.4 6.7c-.4.2-.8.4-1.2.5l-1.3.4-1.4.3c-.5.1-1 .1-1.3.1-1.2 0-2.3-.2-3.4-.6s-2-1-2.8-1.8-1.4-1.6-2-2.7c-.5-1-.7-2.2-.7-3.4 0-1.6.2-3 .6-4.6.4-1.4 1-2.7 2-3.8s2-2 3.3-2.6c1.3-.7 2.8-1 4.6-1 .7 0 1.3 0 2 .1.7.1 1.3.3 2 .5zm18.2 5.8c0 .7 0 1.4-.1 2-.1.6-.3 1.2-.6 1.7s-.6 1-1 1.4-1 1-1.5 1.3l3.5 6-6.3 1.4-2.3-6-1.8.1-.1 6-6 .2V27.4c.7-.3 1.3-.5 2-.7s1.3-.3 2-.4c.6-.1 1.3-.2 2-.2h2c1 0 2 .1 3 .4a8 8 0 0 1 2.7 1.3c.8.6 1.4 1.3 2 2.2.5 1 .8 2 .8 3zm-6.3.6c0-.4-.1-.8-.2-1-.1-.3-.3-.6-.5-.8-.2-.2-.5-.4-.8-.5-.3-.1-.7-.2-1-.2-.2 0-.4 0-.6.1-.2 0-.4.1-.5.1l-.1 5.3h.3c.4 0 .8-.1 1.2-.2.4-.1.8-.3 1-.5.3-.2.6-.5.8-1 .2-.3.3-.8.3-1.2zm15.4-7l-1 19.3-6 .5L218 27l7.5-.6zm18.2 5.8c0 1-.1 1.7-.3 2.4s-.6 1.3-1 2c-.5.5-1 1-1.6 1.4s-1.3.7-2 1c-.7.2-1.5.4-2.3.6l-2.3.2.2 6.6-6.6.2-.4-20c1.2-.4 2.4-.7 3.6-1s2.4-.3 3.7-.4c.7 0 1.5 0 2.2.1.7.1 1.4.3 2 .5.7.2 1.3.5 2 1 .6.4 1 .8 1.5 1.3s.8 1 1 1.8c.3.7.4 1.4.4 2.3zm-6.3.6c0-.6-.2-1-.6-1.4-.4-.3-1-.5-1.5-.5-.2 0-.4 0-.6.1-.2 0-.4.1-.6.1v4c.1 0 .3 0 .4 0h.4c.3 0 .7-.1 1-.2.3-.1.6-.3.8-.5.2-.2.4-.5.6-.8.1-.3.2-.6.2-1zm22.4-7.7v6l-4.2.3L255 45l-6 .5-.3-13.4-4.2.3v-6.7l15.4-.4zm9 .1l-1 19.3-6 .5-.5-19.2 7.5-.6zm19 9.5c0 1-.1 1.7-.2 2.5-.2.8-.4 1.6-.8 2.3-.4.7-.8 1.4-1.3 2-.5.6-1 1-1.8 1.5-.6.4-1.4.8-2 1-.8.2-1.6.4-2.5.4a9 9 0 0 1-2.4-.3c-.8-.2-1.5-.5-2.2-1-.7-.4-1.3-.8-2-1.4-.6-.5-1-1-1.4-1.8-.4-.7-.7-1.4-1-2.2-.2-.8-.4-1.6-.4-2.4 0-.8.1-1.6.2-2.4.2-.8.4-1.6.8-2.3.4-.7.8-1.4 1.3-2a9 9 0 0 1 1.7-1.6c.6-.4 1.4-.8 2-1s1.6-.4 2.4-.4c1.4 0 2.6.1 3.8.5a8 8 0 0 1 2.9 1.8c.8.8 1.5 1.7 2 2.8a10 10 0 0 1 .8 3.7zm-6.3.5c0-.4-.1-.8-.2-1.2-.1-.4-.3-.7-.5-1-.2-.3-.5-.5-1-.7-.3-.2-.7-.3-1.2-.3-.4 0-.8.1-1.2.3s-.6.4-1 .7c-.2.3-.4.6-.5 1-.1.4-.2.8-.2 1.2 0 .4.1.8.2 1.2s.3.7.5 1 .5.6 1 .8c.3.2.7.3 1.2.3s.8-.1 1.2-.3c.4-.2.6-.4 1-.7.2-.3.4-.7.5-1s.2-.8.2-1.2zM308.6 24L308 43l-7.4 1-4.2-10.2-.4 10.5-6.4.2v-20l7-.5 5.2 10v-9.6l6.7-.4z" fill="#fff"/><defs ><path id="C" d="M77.6 102L76 119.6l-33.3 2.6.5-27.4.8-27.4h20.6l-1.7 17.3a314 314 0 0 0-1.2 17.4h16z"/><path id="D" d="M117 67.6l-1 14.7-16.8 1-.4 5h11.8l-1 12.3-12 .4-.4 5.8h16.8l-1 17.2-34 .8 1.3-57H117z"/><path id="E" d="M158.8 103.6c0 3.6-.6 6.8-2 9.5-1.2 2.7-3 5-5 6.7-2.2 1.8-4.7 3-7.6 4-3 1-6 1.3-9.4 1.3a20 20 0 0 1-4.3-.5l-4.7-1.3-8.5-3.4 1.7-16.3c2.2 1.3 4.7 2.4 7.4 3 2.7.7 5.4 1 8 1h1.8c.7-.1 1.4-.2 2-.4.7-.2 1.2-.5 1.7-1s.7-1 .7-1.7c0-.5-.2-1-.5-1.3-.3-.4-.7-.7-1.2-1-.5-.2-1-.4-1.7-.5-.6-.1-1.3-.2-2-.3l-3-.1c-2.3 0-4.3-.4-6.2-1.2-1.8-.8-3.4-2-4.8-3.3-1.3-1.4-2.3-3-3-5-.7-2-1-4-1-6.3 0-3 .6-6 2-8.3 1.3-2.5 3-4.6 5-6.3 2-1.7 4.5-3 7.2-4a26 26 0 0 1 8.4-1.4l4 .2 4 .5 4 1c1.3.4 2.5.8 3.7 1.4l-1.5 16c-1.8-.6-3.7-1-5.7-1.5a27 27 0 0 0-5.7-.6l-3 .2c-.6.1-1.2.1-1.8.3s-1 .3-1.6.6c-.5.2-1 .5-1 1s-.4.8-.4 1.3c0 .6.2 1 .6 1.4a5 5 0 0 0 1.6.8c.7.2 1.4.3 2 .4l2.3.2h3.8c2 .1 4 .6 5.7 1.3a13 13 0 0 1 4.3 3c1.2 1.3 2 2.8 2.7 4.5.6 1.7 1 3.7 1 5.8z"/><path id="F" d="M223.3 86.6c0 2.6-.4 4.8-1 6.8s-1.8 3.7-3.2 5.2c-1.3 1.5-3 2.7-4.7 3.8a30 30 0 0 1-5.8 2.5 41 41 0 0 1-6.3 1.4 54 54 0 0 1-6.4.5v18.4h-18.4l.4-55.5c3.4-1 6.8-1.8 10-2.3l10.4-.8c2 0 4 .2 6 .5a28 28 0 0 1 5.8 1.5c2 .7 3.6 1.6 5.2 2.7 1.6 1 3 2.3 4.2 3.8s2 3.2 2.7 5c.7 2 1 4 1 6.3zM205.7 88c0-1.7-.5-3-1.6-4-1-1-2.4-1.5-4-1.5l-1.7.2-1.7.3-.5 11.5 1 .1h1c1 0 2-.2 2.7-.5 1-.3 1.7-.8 2.4-1.3.7-.6 1.2-1.3 1.6-2 .4-.8.6-1.7.6-2.7z"/><path id="G" d="M263 67.6l-1 14.7-16.8 1-.4 5h11.8l-1 12.3-12 .4-.4 5.8h16.8l-1 17.2-34 .8 1.3-57H263z"/><path id="H" d="M306 68l-.4 16.8-11.8.5-3 37.5-16.7 1 .1-37.5-11.8.6.5-18.7h43z"/><path id="I" d="M417 103.6c0 3.6-.6 6.8-2 9.5-1.2 2.7-3 5-5 6.7-2.2 1.8-4.7 3-7.6 4-3 1-6 1.3-9.4 1.3a20 20 0 0 1-4.3-.5l-4.7-1.3-8.5-3.4 1.7-16.3c2.2 1.3 4.7 2.4 7.4 3 2.7.7 5.4 1 8 1h1.8c.7-.1 1.4-.2 2-.4.7-.2 1.2-.5 1.7-1s.7-1 .7-1.7c0-.5-.2-1-.5-1.3-.3-.4-.7-.7-1.2-1-.5-.2-1-.4-1.7-.5-.6-.1-1.3-.2-2-.3l-3-.1c-2.3 0-4.3-.4-6.2-1.2-1.8-.8-3.4-2-4.8-3.3-1.3-1.4-2.3-3-3-5-.7-2-1-4-1-6.3 0-3 .6-6 2-8.3 1.3-2.5 3-4.6 5-6.3 2-1.7 4.5-3 7.2-4A26 26 0 0 1 398 66l4 .2 4 .5 4 1c1.3.4 2.5.8 3.7 1.4l-1.5 16c-1.8-.6-3.7-1-5.7-1.5a27 27 0 0 0-5.7-.6l-3 .2c-.6.1-1.2.1-1.8.3s-1 .3-1.6.6c-.5.2-1 .5-1 1s-.4.8-.4 1.3c0 .6.2 1 .6 1.4.4.3 1 .6 1.6.8.7.2 1.4.3 2 .4l2.3.2h3.8c2 .1 4 .6 5.7 1.3a13 13 0 0 1 4.3 3c1.2 1.3 2 2.8 2.7 4.5.6 1.7 1 3.7 1 5.8z"/><path id="J" d="M106.7 153.5c0 2-.2 4-.6 5.6-.3 1.7-1 3.2-1.7 4.6s-1.8 2.7-3 4-2.7 2.3-4.4 3.4l9.4 16.8-17.8 3.5-6-16.8-5 .2L77 191H60a4239 4239 0 0 0 .4-18l.6-27a262 262 0 0 1 .3-9 52 52 0 0 1 5.5-1.7l5.4-1 5.5-.5c2-.1 3.8-.2 5.7-.2a30 30 0 0 1 8.7 1.3c2.8.8 5.3 2 7.5 3.7s4 3.7 5.2 6.2c1.3 2.5 2 5.4 2 8.7zM89 154.8c0-1-.2-2-.5-3-.3-1-.7-1.7-1.3-2.4-.6-.7-1.3-1.2-2.2-1.6-1-.4-2-.6-3-.6l-1.5.1-1.5.3-.6 14.7h1c1 0 2.3-.1 3.4-.4 1.2-.3 2.2-.7 3.2-1.3 1-.6 1.7-1.4 2.3-2.3.6-1 1-2 1-3.4z"/><path id="K" d="M132.5 136l-4.4 54-16.7 1V137l21-1z"/><path id="L" d="M171.6 169l-1.7 17.6-33.3 2.6.5-27.4.8-27.4h20.6l-1.7 17.3c-.6 5.7-1 11.5-1.2 17.4h16z"/><path id="M" d="M254.6 135l-2.8 53.6-20.7 2-11-28.7-1.7 29.3h-17.8l1.4-56 19.8-1 13.7 28.5.6-27 18.7-.6z"/><path id="N" d="M307.2 183.5c-1.2 1.6-2.8 3-4.6 4s-3.8 2-6 3a36 36 0 0 1-6.4 1.7l-6.2.6c-3.8 0-7.3-.7-10.6-2s-6-3.3-8.3-5.7c-2.3-2.4-4-5.3-5.5-8.5a28 28 0 0 1-2-10.6 36 36 0 0 1 3.8-16.2c1.2-2.5 2.7-4.7 4.5-6.7 1.8-2 3.8-3.8 6-5.3s4.7-2.6 7.4-3.4a29 29 0 0 1 8.5-1.2l3.6.2 3.8.5 3.8 1c1.2.4 2.3 1 3.3 1.5l-1 15c-1.5-.6-3-1-4.6-1a34 34 0 0 0-4.6-.3c-2 0-4 .3-6 1-1.8.6-3.4 1.6-4.8 2.8-1.3 1.2-2.4 2.7-3.2 4.4s-1.2 3.7-1.2 6c0 1.4.2 2.7.6 4 .4 1.3 1 2.4 1.7 3.4.8 1 1.7 1.8 2.8 2.4 1 .6 2.4 1 4 1 1 0 2-.1 3-.4 1-.3 2-.7 2.8-1.3v-3l-9.5-.2.5-12 23.7-.7.5 26.6z"/><path id="O" d="M359.2 147.6l-.3 6.4a83 83 0 0 1-.9 7.3c-.4 2.5-1 5-1.7 7.6a53 53 0 0 1-2.5 7.4c-1 2.4-2.2 4.6-3.5 6.7-1.3 2-2.8 4-4.6 5.4-1.7 1.5-3.6 2.7-5.8 3.6-2 1-4.5 1.3-7 1.3-3 0-5.7-.5-8-1.5-2.2-1-4.2-2.3-5.8-4-1.6-1.7-3-3.6-4-6-1-2.2-1.8-4.6-2.4-7a57 57 0 0 1-1.2-7.6c-.2-2.6-.3-5-.3-7.5a110 110 0 0 1 .6-11 131 131 0 0 1 1.6-11l18.5.7-2 12.5a105 105 0 0 0-.8 12.6v2l.2 3c.1 1 .3 2.2.4 3.4a20 20 0 0 0 .8 3.1c.3 1 .8 1.7 1.2 2.3.5.6 1 1 1.7 1 .8 0 1.5-.4 2-1 .6-.7 1-1.7 1.6-3 .5-1.2 1-2.6 1.2-4.2l1-5c.2-1.7.4-3.4.6-5l.6-8.7a123 123 0 0 0 0-2.5l-.4-12.3h18.5l.5 11z"/><path id="P" d="M401.5 134.6l-1 14.7-16.8 1-.4 5H395l-1 12.3-12 .4-.4 5.8h16.8l-1 17.2-34 .8 1.3-57h36.5z"/><path id="Q" d="M445 170.6c0 3.6-.6 6.8-2 9.5-1.2 2.7-3 5-5 6.7-2.2 1.8-4.7 3-7.6 4-3 1-6 1.3-9.4 1.3a20 20 0 0 1-4.3-.5l-4.7-1.3-8.5-3.4 1.7-16.3c2.2 1.3 4.7 2.4 7.4 3 2.7.7 5.4 1 8 1h1.8c.7-.1 1.4-.2 2-.4.7-.2 1.2-.5 1.7-1s.7-1 .7-1.7c0-.5-.2-1-.5-1.3-.3-.4-.7-.7-1.2-1-.5-.2-1-.4-1.7-.5-.6-.1-1.3-.2-2-.3l-3-.1c-2.3 0-4.3-.4-6.2-1.2-1.8-.8-3.4-2-4.8-3.3-1.3-1.4-2.3-3-3-5-.7-2-1-4-1-6.3 0-3 .6-6 2-8.3 1.3-2.5 3-4.6 5-6.3 2-1.7 4.5-3 7.2-4a26 26 0 0 1 8.4-1.4l4 .2 4 .5 4 1c1.3.4 2.5.8 3.7 1.4l-1.5 16c-1.8-.6-3.7-1-5.7-1.5-2-.4-4-.6-5.7-.6l-3 .2c-.6.1-1.2.1-1.8.3s-1 .3-1.6.6c-.5.2-1 .5-1 1s-.4.8-.4 1.3a2 2 0 0 0 .6 1.4 5 5 0 0 0 1.6.8c.7.2 1.4.3 2 .4l2.3.2h3.8c2 .1 4 .6 5.7 1.3a13 13 0 0 1 4.3 3c1.2 1.3 2 2.8 2.7 4.5.6 1.7 1 3.7 1 5.8z"/></defs></svg>