<svg xmlns="http://www.w3.org/2000/svg" width="431" height="185" fill="none" xmlns:v="https://vecta.io/nano"><path d="M358 94l14-1.2 1.3 38.6c13 4.5 26 9.7 39.2 15.6l-7 12.2-35.8-16.2c-5.3 9.8-16.7 17.4-34.2 22.8l-10.7-11c20.3-5.5 31.8-13.4 34.4-24 1.2-4 1-16.5-1-37zm-24.5 47.3L327.8 79l69.8-6.2 5.7 62.4-13.4 1.2-4.6-50.5-43 3.8 4.6 50.5-13.4 1.2z" fill="#fff"/><path fill-rule="evenodd" d="M342.3 89.7l4.6 50.5-13.4 1.2-5.7-62.4 69.8-6.2 5.7 62.4-13.4 1.2-4.6-50.5-43 3.8zM358 94l.8 10.2c1 12.6 1 21 .5 25.3-.1.4-.1.8-.2 1.2v.4c-.4 1.4-1 2.8-1.6 4.2-.2.4-.4.8-.6 1.2a23 23 0 0 1-2.2 3.1 33 33 0 0 1-7.1 6.1l-6 3.4-7 3-3.4 1.2a124 124 0 0 1-6.3 1.9l-.3.1a151 151 0 0 1 10.7 10.9c15.5-4.8 26.2-11.3 32.2-19.5.3-.4.6-.8 1-1.3l1.2-2 35.8 16.2 7-12.2-25.2-10.5-14-5a45 45 0 0 0 .3-3.9c.2-4.5.1-10.7-.4-18.7l-.4-5.7a631 631 0 0 0-.8-10.2h0L358 94zm16.5 68.6l23.5 11c7.7 3.8 17 1 21.3-6.4l7-12.2c2.3-4 2.8-8.6 1.4-13-1.4-4.2-4.4-7.6-8.4-9.5l-5.6-61.3C413 62.6 405 56 396 57L326.3 63c-9 .8-15.5 8.6-14.7 17.4l5.5 60.3a16 16 0 0 0-8.4 10.5c-1.4 5.7.5 11.6 5 15.6 2.4 2.2 5.5 5.3 9.5 9.7 4.2 4.7 11 6.5 17 4.6a86 86 0 0 0 34.5-18.5z" fill="#0da84a"/><path d="M220 145.7l38.3 2.8 1-14-30-2.2.8-11 30 2.2.7-8.6-32.4-2.4.8-11 78 5.7-.8 11-32-2.4-.7 8.6 29.7 2.2-.8 11-11.8-1 8.5 9.2-7 5 17.8 1.3-.8 11-90-6.6.8-11zm59.4-4.8l6.4-4.6-12.7-1-1 14 15.8 1.2-8.5-9.8zm32-36l-13-1 .5-6.5-59.8-4.4-.5 6.5-13-1 1.4-18 35.7 2.6L260 75l16-.4 2.5 10 34.2 2.5-1.4 18z" fill="#fff"/><path fill-rule="evenodd" d="M229.3 132l30 2.2-1 14-38.3-2.8-.8 11 90 6.6.8-11-17.8-1.3 7-5-8.5-9.2 11.8 1 .8-11-29.7-2.2.7-8.6 32 2.4.8-11-78-5.7-.8 11 32.4 2.4-.7 8.6-30-2.2-.8 11zm43.8 3.2l-1 14 15.8 1.2-8.5-9.8 6.4-4.6-12.7-1zm-47.3-36.7l13 1 .5-6.5 59.8 4.4-.5 6.5 13 1 1.4-18-34.2-2.5-2.5-10-16 .4 1.3 3.7c0 0 0 .1 0 .1l1.5 4.7-35.7-2.6-1.4 18zm20.6-32.5l-18-1.3c-9-.7-16.8 6-17.4 14.8l-1.4 18c-.3 4 .8 7.5 3 10.4l-.3 3.3c-.2 3 .4 6 1.7 8.4v.3l-1 11.2a16 16 0 0 0-9.3 13.3l-.8 11c-.7 8.8 6 16.5 15 17l90 6.6c9 .7 16.8-6 17.4-14.8l.8-11c.5-6-2.5-11.5-7.4-14.6l1-11.5c1.7-2.3 2.7-5 3-8l.2-3c2.6-2.6 4.4-6 4.7-10l1.4-18c.7-8.8-6-16.5-15-17l-22.5-1.7c-2.2-6.7-8.6-11-15.8-11l-16 .4c-5.2.1-10 2.6-13 6.8l-.3.5z" fill="#0da84a"/><path d="M148.4 95l11.6-.3 1.7-7.4-15.7.4-.3-10 60-1.6.3 10-31.4 1-1.7 7.4 29.6-.8.5 19 7-.2.3 10L144 124l-.3-10 12-.3 2.2-9.4-9 .2-.3-9.7zm3.8 69l-1-34.8 54.2-1.5 1 34.7-12.6.3-.1-5-29 .8.1 5-12.6.3zm-5.7-29.6l1.5 14.4c-6.8 5.3-12.3 10.2-16.5 14.8l-7-8.8c1.6-1.7 2.4-4.3 2.3-7.7l-1-30.5-8 .2-.3-12 20.3-.5 1 36.8 7.3-6.8zM193 138l-29 .8.3 10 29-.8-.3-10zm-63.6-62.7l12.3 16.4-10.7 6.7c-3.6-6-7.4-11.8-11.5-17l10-6zm60.2 28.2l-19 .5-2.2 9.4 21.4-.6-.3-9.3z" fill="#fff"/><path fill-rule="evenodd" d="M145.7 78l60-1.6.3 10-31.4 1-1.7 7.4 29.6-.8.5 19 7-.2.3 10L144 124l-.3-10 12-.3 2.2-9.4-9 .2-.3-9.7 11.6-.3 1.7-7.4-15.7.4-.3-10zm-6-15c1.7-.6 3.5-1 5.4-1l60-1.6c9-.2 16.4 6.7 16.7 15.6l.3 10c.1 4-1.2 7.4-3.4 10.3v3c4.3 2.8 7.2 7.5 7.3 13l.3 10c.1 4.5-1.7 8.7-4.7 11.7l.8 28.6c.2 8.8-6.8 16.2-15.8 16.4l-12.6.3c-4.6.1-8.8-1.7-12-4.6l-5.4.1c-3 3.2-7 5.2-11.7 5.3l-12.6.3c-4.2.1-8-1.4-11-4-3 2.3-6.8 3.5-10.6 3.4-4.8-.2-9.3-2.4-12.2-6.2l-7-8.8c-4.2-5.3-4.5-12.4-1.2-18l-.4-16a16 16 0 0 1-8.3-13.5l-.3-12c-.1-5.2 2.3-10 6-13l-1-1.3c-2.8-3.6-4-8.2-3-12.6a16 16 0 0 1 7.4-10.7l10-6c6-3.7 13.6-3 19 1.2zm-22 42l.3 12 8-.2 1 30.5a15 15 0 0 1-.4 4.1c-.4 1.5-1 2.7-2 3.6l7 8.8 12-11 4.6-3.7-1.2-9c-.2-2-.3-3.7-.3-5.5l-7.3 6.8-1-36.8-20.3.5zm34.3 59l12.6-.3-.1-5 29-.8.1 5 12.6-.3-1-34.7-54.2 1.5 1 34.8zm12.2-15.2l29-.8-.3-10-29 .8.3 10zm-32-70l-.4-.5c-.7-1-1.5-1.8-2.2-2.8l-.1-.2-10 6 6.5 9 5 8 1.8-1c1-.7 2.2-1.3 3.2-2l5.7-3.6-9.6-13zm-21.6 69s0 0 0 0h0zm57.8-34.4l21.4-.6-.3-9.3-19 .5-2.2 9.4z" fill="#0da84a"/><path d="M25 83l77.7 2.4-.4 13.5-77.7-2.4L25 83zm3.2 31l69.4 2-.4 13-69.4-2 .4-13zm-11 32.2l89.6 2.8-.4 13.5-89.6-2.8.4-13.5z" fill="#fff"/><path fill-rule="evenodd" d="M8.7 82.4C9 73.6 16.5 66.6 25.5 67l77.7 2.4c9 .3 16 7.7 15.7 16.5l-.4 13.5c-.1 4.6-2.3 8.7-5.6 11.6.6 1.8 1 3.7.8 5.6l-.4 13c0 1.5-.3 3-.7 4.2a16 16 0 0 1 10.4 15.4l-.4 13.5c-.3 8.8-7.8 15.8-16.8 15.5l-89.6-2.8c-9-.3-16-7.7-15.7-16.5l.4-13.5a16 16 0 0 1 11-14.7c-.4-1.4-.5-3-.5-4.4l.4-13c.1-2 .5-4 1.2-5.6-3-3-5-7.3-4.8-12l.4-13.5zm93.5 16.4l.4-13.5L25 83l-.4 13.5 77.7 2.4zM97.5 116l-69.4-2-.4 13 69.4 2 .4-13zm9.3 32.8L17.2 146l-.4 13.5 89.6 2.8.4-13.5z" fill="#0da84a"/><path d="M127.5 67l-7.8-55 182.5-4-4.2 58.4-170.5.6z" fill="#a6a531"/><path d="M170.5 26.7l-.2 4.2-2 6.5-4.5-1 2-5.5-9.7-.5c-1 2.7-2.2 5-3.3 7.3a40 40 0 0 0-4.1-2.5 64 64 0 0 0 5.7-14.2l4.7 1-1.4 4.2 13 .6zm-31 3.3l3.5 6a36 36 0 0 0 1.7-7.9l-8.5-.4.2-4.5 13.2.6c-.4 7-1.6 12.8-3.6 17.5l3.4 6-4.3 2.3-1.7-3.5a36 36 0 0 1-6.7 7.5 88 88 0 0 0-2.1-5.2 34 34 0 0 0 6.2-7.3l-5.2-9.4 4-1.8zm17.3 2.5l4.6.2a40 40 0 0 1-.6 5.3c1.7 7 4.8 11.4 9.3 13.4l-3 4.5c-3.8-2.4-6.5-6.2-8-11.2-2 4.6-5.4 8.3-9.8 11-.8-1.2-2-2.6-3.8-4.4 3.8-2 6.7-4.3 8.5-7.3a24 24 0 0 0 3.1-11.5zm23.8-11.2l5 6.4-4.2 2.8c-1.4-2.2-3-4.4-4.7-6.6l3.8-2.5zm11.5 19l4-2.2c0 2.3 0 4 .2 5.3a47 47 0 0 0-7.6 4.2l-2.6-4c1-.8 1.4-2 1.4-3.4l-.2-16a33 33 0 0 0 7.3-2.3l2.2 4v-2l13-.1.2 17.4c0 1-.1 1.7-.4 2.4s-.6 1.2-1.2 1.6-1 .7-1.6.8-2 .2-4 .3a36 36 0 0 0-.9-4.7l1.7.1c1.2 0 1.8-.6 1.8-2l-.1-11.6h-3.7l.2 21.7H197l-.2-23.5c-1.7.7-3.3 1-4.8 1.4v12.7zm19.6 10l-1.7 5a241 241 0 0 1-21.8-.2c-2.4-.3-4.5-1.3-6-3l-3.8 4.4-2-5.3a99 99 0 0 1 3.5-3.2l-.1-10h-3.3v-5h8l.2 15.2c1 1.4 3 2 5.3 2.2l22-.2zm5.5-23l3.8-.3-.5-6 4.6-.3.5 6 3.5-.3.4 4.5H226l.4 5.4 3.6-1c0 2 .1 3.6.2 4.7l-3.5 1 .7 9c.1 1.6-.2 2.7-1 3.5s-2.8 1.3-6 1.5l-1.6-4.7 2.4-.1c.6 0 1-.2 1.2-.5s.3-.7.3-1.3l-.5-6.2-3.8 1.2-1-5 4.3-1-.5-6.3-3.8.3-.4-4.5zm33.7 5.2l.3 4a28 28 0 0 1-4 9.3c2 1 4.2 2 6.7 2.5l-2.6 5c-2.5-1-4.8-2.3-7-4a33 33 0 0 1-5.6 4.8c-.5-.8-1.2-1.7-2-2.8l.2 2.8-4.7.4-2.6-33 19.8-1.5.2 6c0 1.6-.4 3-1.3 3.8s-2 1.4-3.7 1.6l-6 .4a41 41 0 0 0-1.3-4.2l5-.2c1-.1 1.5-.3 2-.7s.5-1 .4-2.3l-10.2.8.7 8.4 15.6-1.2zm-12 5.3a22 22 0 0 0 4.6 5.4c1.3-2 2.3-4 2.8-6.2l-10.8.8 1 11.4a25 25 0 0 0 4.3-3 38 38 0 0 1-4.8-6l3-2.4zm22.8 15.8L262 42l-3.8 1-2-4.3a73 73 0 0 0 13.2-3.8l-4.3-3.2 3.6-3 5.6 4c2.8-1.5 5.3-3.2 7.6-5l-14.4-.4c-2.2 2.3-4.8 4.3-7.7 6.2l-3-3.6c4.6-3 8.3-6.5 11-10.5l5.5.5-2 3.2 17.6.5-.1 4.2A44 44 0 0 1 273.7 38l15 .4-.4 16h-5v-1.6L267 52v1.7l-5-.1zm21.7-11.2L267 42v5.7l16.2.4.2-5.7z" fill="#fff"/></svg>