<svg xmlns="http://www.w3.org/2000/svg" xmlns:xlink="http://www.w3.org/1999/xlink" width="391" height="91" fill="none" xmlns:v="https://vecta.io/nano"><style><![CDATA[.B{mask:url(#A)}]]></style><g fill="#0da84a"><path d="M59.5 75c-.2-1.8 10-15.6 18-24.5 4-4.4 7.3-7.6 8.5-7.5a108 108 0 0 0 15.5.4C112 43 124 41.6 137 39.6 189.4 31.3 254.6 12.4 262.5 7c8.5 4.3 11.6 9 20 10 12 1.5 7.7 21.5 18 26 4.8.8 13.6 3.5 10 7.5-.6.7-1 2-1.2 3.5-.4 3 0 7.5.1 11.5.2 5.2.2 9.7-2 9.5H269l-25-6.5 10-14-10-4-12.5 8-12-8-8 22.5-24 2-24-5-21.5 5-26-2-56.5 2z"/><path d="M13.5 73l46 2a120 120 0 0 1 18-24.5l-64 8V73zM104 21l-2.5 22.4a320 320 0 0 0 35.5-3.8L126 21h-22zm280 53l-74.7-20c-.4 3 0 7.5.1 11.5l70 16L384 74z"/></g><mask id="A" maskUnits="userSpaceOnUse" x=".7" y=".6" width="390" height="91" fill="#000"><path fill="#fff" d="M.7.6h390v91H.7z"/><use xlink:href="#C"/><use xlink:href="#D"/><use xlink:href="#E"/><use xlink:href="#F"/><use xlink:href="#G"/><use xlink:href="#H"/><use xlink:href="#D" x="99"/><use xlink:href="#I"/><use xlink:href="#J"/><use xlink:href="#K"/><use xlink:href="#G" x="116"/><use xlink:href="#F" x="150.3"/><use xlink:href="#L"/><use xlink:href="#M"/><use xlink:href="#N"/><use xlink:href="#O"/><use xlink:href="#P"/><use xlink:href="#Q"/><use xlink:href="#R"/><use xlink:href="#N" x="85.2"/><use xlink:href="#S"/><use xlink:href="#T"/><use xlink:href="#N" x="133.2"/><use xlink:href="#U"/><use xlink:href="#O" x="153.7"/><use xlink:href="#G" x="82" y="36"/><use xlink:href="#J" x="14.4" y="36"/><use xlink:href="#V"/><use xlink:href="#S" x="158.2"/><use xlink:href="#R" x="207"/><use xlink:href="#W"/><use xlink:href="#X"/><use xlink:href="#Y"/></mask><g fill="#fff"><use xlink:href="#C"/><use xlink:href="#D"/><use xlink:href="#E"/><use xlink:href="#F"/><use xlink:href="#G"/><use xlink:href="#H"/><use xlink:href="#D" x="99"/><use xlink:href="#I"/><use xlink:href="#J"/><use xlink:href="#K"/><use xlink:href="#G" x="116"/><use xlink:href="#F" x="150.3"/><use xlink:href="#L"/><use xlink:href="#M"/><use xlink:href="#N"/><use xlink:href="#O"/><use xlink:href="#P"/><use xlink:href="#Q"/><use xlink:href="#R"/><use xlink:href="#N" x="85.2"/><use xlink:href="#S"/><use xlink:href="#T"/><use xlink:href="#N" x="133.2"/><use xlink:href="#U"/><use xlink:href="#O" x="153.7"/><use xlink:href="#G" x="82" y="36"/><use xlink:href="#J" x="14.4" y="36"/><use xlink:href="#V"/><use xlink:href="#S" x="158.2"/><use xlink:href="#R" x="207"/><use xlink:href="#W"/><use xlink:href="#X"/><use xlink:href="#Y"/></g><g stroke="#0da84a" stroke-width="16" stroke-linejoin="round" class="B"><use xlink:href="#C"/><use xlink:href="#D"/><use xlink:href="#E"/><use xlink:href="#F"/><use xlink:href="#G"/><use xlink:href="#H"/><use xlink:href="#D" x="99"/><use xlink:href="#I"/><use xlink:href="#J"/><use xlink:href="#K"/><use xlink:href="#G" x="116"/><use xlink:href="#F" x="150.3"/><use xlink:href="#L"/><use xlink:href="#M"/><use xlink:href="#N"/><use xlink:href="#O"/><use xlink:href="#P"/><use xlink:href="#Q"/><use xlink:href="#R"/><use xlink:href="#N" x="85.2"/><use xlink:href="#S"/><use xlink:href="#T"/><use xlink:href="#N" x="133.2"/><use xlink:href="#U"/><use xlink:href="#O" x="153.7"/><use xlink:href="#G" x="82" y="36"/><use xlink:href="#J" x="14.4" y="36"/><use xlink:href="#V"/><use xlink:href="#S" x="158.2"/><use xlink:href="#R" x="207"/><use xlink:href="#W"/><use xlink:href="#X"/><use xlink:href="#Y"/></g><defs ><path id="C" d="M93 32.6l5.2-22c.6-.2 1.5-.2 2.5-.2 1.4 0 2.5.1 3.3.4v.3L96.6 38a44 44 0 0 1-4.6.2c-1.5 0-2.6-.2-3.3-.6-.7-.4-1.2-1.2-1.5-2.3l-6.6-24c1.4-.6 2.6-1 3.6-1 1 0 2 .3 2.5.8s1 1.3 1.2 2.4L91 25c.5 1.8 1 4.2 1.5 7.3.1.3.2.5.4.5z"/><path id="D" d="M119 19.8c2 2 3 4.7 3 8.2a14 14 0 0 1-.6 4.4c-.4 1.3-1 2.4-1.8 3.4-.8 1-1.7 1.6-3 2-1 .5-2.5.7-4 .7s-2.8-.3-4-.8c-1-.5-2-1.2-3-2-.8-1-1.4-2-1.8-3.4s-.6-2.7-.6-4.3c0-1.6.2-3 .6-4.3.4-1.3 1-2.4 1.8-3.4s1.7-1.7 3-2.2 2.5-.8 4-.8c2.6 0 4.8.8 6.4 2.4zm-6.4 2.3c-.6 0-1 .1-1.4.4-.3.3-.6.6-.8 1s-.4 1-.4 1.7c-.1.6-.1 1.3-.1 2 0 1 0 2 .1 3 .1.8.2 1.5.4 2 .2.5.5 1 .8 1.2.4.3 1 .4 1.4.4 1.2 0 2-.5 2.3-1.5.4-1 .6-2.5.6-4.4a13 13 0 0 0-.6-4.4c-.4-1-1-1.5-2.2-1.5z"/><path id="E" d="M136.7 18c.2.7.2 1.5.2 2.2s-.1 1.5-.2 2.2H132v9.2c0 1.3.6 2 1.8 2h2.2c.3 1 .5 1.8.5 2.6s-.1 1.4-.2 1.7a41 41 0 0 1-5.4.4c-3.4 0-5-2-5-5.6V22.4h-3a8 8 0 0 1-.3-2.2 9 9 0 0 1 .3-2.3h3v-2.3c0-1.4.3-2.3.8-3 .5-.6 1.4-1 2.6-1h2.4l.3.3V18h4.8z"/><path id="F" d="M138.4 21c.1-.5.4-1 .8-1.8.4-.7.7-1 1-1.4 2.5.2 4.2 1.4 5 3.6 1-2.4 2.7-3.6 5-3.6a14 14 0 0 1 2.6.3c0 .8-.1 1.8-.4 3-.3 1-.6 2-1 3-.5-.2-1-.3-2-.4-1.3 0-2.4.7-3.3 2V38c-1 .2-2 .2-3 .2-1.2 0-2.2-.1-3-.2V25c0-2-.5-3.4-1.5-4.2z"/><path id="G" d="M170 30h-10.4c.1 1.2.4 2 1 2.8s1.5 1 2.8 1c.6 0 1.4-.1 2.2-.3 1-.2 1.8-.5 3-1 1 1 1.4 2 1.6 3.7-2 1.5-4.7 2.3-7.8 2.3a10 10 0 0 1-4.2-.8c-1-.5-2-1.3-2.8-2.2-.7-1-1.2-2-1.5-3.4s-.4-2.7-.4-4.3c0-1.5.2-3 .5-4 .4-1.3 1-2.4 1.6-3.3.7-1 1.7-1.7 2.8-2.2 1-.5 2.5-.8 4-.8 1.3 0 2.4.2 3.4.6 1 .4 2 1 2.6 1.8s1.3 1.6 1.6 2.7c.4 1 .6 2.2.6 3.4 0 1.6-.2 3-.5 4zm-10.5-4.3h5.3v-.4c0-1-.2-1.8-.7-2.4-.4-.6-1-1-2-1-1 0-1.5.3-2 1a6 6 0 0 0-.7 2.9z"/><path id="H" d="M189.3 17.6c1.3 0 2.5.3 3.7 1V8.8l.2-.3h2.4c1.3 0 2.2.3 2.6.8.5.6.8 1.5.8 3v20c0 1.4.4 2.4 1 3-.1.6-.4 1.2-.8 1.8s-.8 1-1.2 1.4c-2-.1-3.4-.8-4.3-2.2-1.6 1.7-3.5 2.5-5.8 2.5s-4-1-5.2-2.8-1.8-4.4-1.8-7.7c0-1.6.2-3 .6-4.3.4-1.3 1-2.4 1.7-3.3s1.6-1.6 2.5-2c1-.5 2-.8 3.2-.8zm.8 16c1 0 2-.5 3-1.6v-8.8c-1-.6-2-1-2.6-1-1.8 0-2.7 2-2.7 6 0 3.5.8 5.3 2.4 5.3z"/><path id="I" d="M222.5 36.6c0-.7.2-1.5.5-2.3.3-.8.7-1.5 1.2-2 2 1 4 1.7 5.6 1.7.7 0 1.3-.1 1.7-.4.4-.3.6-.6.6-1 0-.8-.6-1.4-1.8-1.8L228 30c-3.3-1.2-5-3.2-5-6 0-2 .7-3.6 2-4.8 1.4-1.2 3.3-1.8 5.7-1.8 1.2 0 2.5.2 4 .5 1.4.3 2.6.7 3.5 1.2.1.7-.1 1.6-.4 2.5-.3 1-.8 1.5-1.3 2-2.2-1-4-1.5-5.6-1.5-.5 0-1 .1-1.2.4-.3.2-.4.5-.4 1 0 .6.5 1 1.5 1.5l2.5 1c3.5 1.3 5.3 3.4 5.3 6.4 0 2-.7 3.6-2.2 4.8s-3.6 1.8-6.3 1.8-5.2-.7-7.6-2z"/><path id="J" d="M239.8 36.6c0-.7.2-1.5.5-2.3.3-.8.7-1.5 1.2-2 2 1 4 1.7 5.6 1.7.7 0 1.3-.1 1.7-.4.4-.3.6-.6.6-1 0-.8-.6-1.4-1.8-1.8l-2.2-.8c-3.3-1.2-5-3.2-5-6 0-2 .7-3.6 2-4.8 1.4-1.2 3.3-1.8 5.7-1.8 1.2 0 2.5.2 4 .5 1.4.3 2.6.7 3.5 1.2.1.7-.1 1.6-.4 2.5-.3 1-.8 1.5-1.3 2-2.2-1-4-1.5-5.6-1.5-.5 0-1 .1-1.2.4-.3.2-.4.5-.4 1 0 .6.5 1 1.5 1.5l2.5 1c3.5 1.3 5.3 3.4 5.3 6.4 0 2-.7 3.6-2.2 4.8s-3.6 1.8-6.3 1.8-5.2-.7-7.6-2z"/><path id="K" d="M266 22.6V38l-1.5.2c-.5.1-1 .1-1.6.1s-1 0-1.7-.1a12 12 0 0 1-1.5-.2V24.8c0-1.5-.6-2.3-2-2.3h-.6c-.2-.5-.2-1.2-.2-2a9 9 0 0 1 .2-2.2l2-.1c.6-.1 1-.1 1.6-.1h1c1.4 0 2.4.4 3.2 1.3s1.2 2 1.2 3.5zM259 10c.8-.4 1.8-.6 3-.6 1.3 0 2.2.2 3 .6.3.7.5 1.5.5 2.3s-.2 1.6-.5 2.3c-.8.4-1.8.6-3 .6s-2.2-.2-3-.6c-.3-.7-.5-1.5-.5-2.3s.2-1.6.5-2.3z"/><path id="L" d="M16.7 53.6c1.3 0 2.5.3 3.7 1v-9.7l.2-.3H23c1.3 0 2.2.3 2.6.8.5.6.8 1.5.8 3v20c0 1.4.4 2.4 1 3-.1.6-.4 1.2-.8 1.8s-.8 1-1.2 1.4c-2-.1-3.4-.8-4.3-2.2-1.6 1.7-3.5 2.5-5.8 2.5s-4-1-5.2-2.8-1.8-4.4-1.8-7.7c0-1.6.2-3 .6-4.3.4-1.3 1-2.4 1.7-3.3s1.6-1.6 2.5-2c1-.5 2-.8 3.2-.8zm.8 16c1 0 2-.5 3-1.6v-8.8c-1-.6-2-1-2.6-1-1.8 0-2.7 2-2.7 6 0 3.5.8 5.3 2.4 5.3z"/><path id="M" d="M37.3 43c.3 1 .5 2 .5 3.2 0 2-.6 3.7-1.8 5.3-1.2 1.5-3 2.6-5 3.2-.5-.2-.8-.6-1-1a3 3 0 0 1-.3-1.5v-.3c.4-.1.8-.3 1.2-.5s.8-.5 1-.8c.3-.3.6-.6.8-1 .2-.4.3-.8.3-1.2-.7-.1-1.3-.2-1.8-.6-.2-.5-.4-1-.4-1.3 0-.3 0-.7 0-1 0-1 .1-1.7.5-2.4.6-.3 1-.5 1.6-.6s1-.1 1.5-.1c1.3 0 2.3.2 3 .7z"/><path id="N" d="M48.5 58.6V74l-1.5.2c-.5.1-1 .1-1.6.1s-1 0-1.7-.1a12 12 0 0 1-1.5-.2V60.8c0-1.5-.6-2.3-2-2.3h-.6c-.2-.5-.2-1.2-.2-2a9 9 0 0 1 .2-2.2l2-.1c.6-.1 1-.1 1.6-.1h1c1.4 0 2.4.4 3.2 1.3s1.2 2 1.2 3.5zm-7-12.6c.8-.4 1.8-.6 3-.6 1.3 0 2.2.2 3 .6.3.7.5 1.5.5 2.3s-.2 1.6-.5 2.3c-.8.4-1.8.6-3 .6s-2.2-.2-3-.6c-.3-.7-.5-1.5-.5-2.3s.2-1.6.5-2.3z"/><path id="O" d="M70 60.8V69c0 1.8.3 3 1 4-1 1-2.2 1.4-3.6 1.4-1.4 0-2.3-.3-2.8-1s-.8-1.6-.8-3V62c0-1-.1-1.6-.4-2s-.7-.6-1.4-.6c-.4 0-1 .1-1.4.3s-1 .6-1.6 1V74l-1.5.2c-.5.1-1 .1-1.6.1s-1 0-1.6-.1a12 12 0 0 1-1.5-.2l.3-20.2h2.4c1.6 0 2.7.8 3.3 2.4 2-1.7 3.7-2.5 5.6-2.5 2 0 3.3.7 4.2 2 1 1.3 1.5 3 1.5 5.2z"/><path id="P" d="M72.7 72.6c0-.7.2-1.5.5-2.3.3-.8.7-1.5 1.2-2 2 1 4 1.7 5.6 1.7.7 0 1.3-.1 1.7-.4.4-.3.6-.6.6-1 0-.8-.6-1.4-1.8-1.8l-2.2-.8c-3.3-1.2-5-3.2-5-6 0-2 .7-3.6 2-4.8 1.4-1.2 3.3-1.8 5.7-1.8 1.2 0 2.5.2 4 .5 1.4.3 2.6.7 3.5 1.2.1.7-.1 1.6-.4 2.5-.3 1-.8 1.5-1.3 2-2.2-1-4-1.5-5.6-1.5-.5 0-1 .1-1.2.4-.3.2-.4.5-.4 1 0 .6.5 1 1.5 1.5l2.5 1C87 63 88.7 65 88.7 68c0 2-.7 3.6-2.2 4.8s-3.6 1.8-6.3 1.8-5.2-.7-7.6-2z"/><path id="Q" d="M101.6 63v-.5a8 8 0 0 0-.5-3.2c-.3-.7-1-1-1.8-1-1 0-1.6.5-2 1.4-.4 1-.6 2.4-.6 4.6a15 15 0 0 0 .2 2.7c.2.7.4 1.3.6 1.8.3.4.7.7 1 1 .4.2 1 .3 1.5.3.6 0 1.3-.1 2-.4s1.5-.7 2.4-1.3c.2.1.5.3.7.6.3.2.5.5.7.8s.4.7.6 1c.2.3.3.7.4 1-1 1-2 1.7-3.4 2.2s-3 .8-4.3.8c-3 0-5-1-6.6-2.8s-2.3-4.5-2.3-8c0-1.8.2-3.3.7-4.6.5-1.3 1.2-2.4 2-3.2.8-1 1.8-1.5 2.8-2 1-.4 2.2-.6 3.3-.6 1.2 0 2.2.2 3.2.5 1 .3 1.8.8 2.5 1.4.7.6 1.3 1.3 1.6 2 .4.8.6 1.7.6 2.7 0 1-.3 2-1 2.4-.6.5-1.4.7-2.4.7-.8 0-1.5-.1-2.2-.2z"/><path id="R" d="M109 57c.1-.5.4-1 .8-1.8.4-.7.7-1 1-1.4 2.5.2 4.2 1.4 5 3.6 1-2.4 2.7-3.6 5-3.6a14 14 0 0 1 2.6.3c0 .8-.1 1.8-.4 3-.3 1-.6 2-1 3-.5-.2-1-.3-2-.4-1.3 0-2.4.7-3.3 2V74c-1 .2-2 .2-3 .2-1.2 0-2.2-.1-3-.2V61c0-2-.5-3.4-1.5-4.2z"/><path id="S" d="M147.8 74.4c-1.2 0-2.5-.3-3.7-.8V79c0 1.4-.3 2.4-.8 3s-1.4.8-2.7.8h-2.4l-.3-.3.3-28.6h1.6c1.5 0 2.7.7 3.4 2 1.5-1.5 3.4-2.3 5.6-2.3 1 0 2 .3 3 .8 1 .5 1.6 1.2 2.2 2 .6 1 1 2 1.4 3.3.3 1.3.5 2.7.5 4.3a14 14 0 0 1-.6 4.4 10 10 0 0 1-1.7 3.3c-.7 1-1.6 1.6-2.6 2-1 .5-2 .7-3.2.7zm-.8-16c-1 0-2 .5-3 1.6v8.8c1 .6 2 1 2.6 1 1.8 0 2.7-2 2.7-6 0-3.5-.8-5.3-2.4-5.3z"/><path id="T" d="M170.8 54c.2.7.2 1.5.2 2.2s-.1 1.5-.2 2.2H166v9.2c0 1.3.6 2 1.8 2h2.2c.3 1 .5 1.8.5 2.6s-.1 1.4-.2 1.7a41 41 0 0 1-5.4.4c-3.4 0-5-2-5-5.6V58.4h-3a8 8 0 0 1-.3-2.2c0-.8.1-1.6.3-2.3h3v-2.3c0-1.4.3-2.3.8-3 .5-.6 1.4-1 2.6-1h2.4l.3.3V54h4.8z"/><path id="U" d="M200.4 55.8c2 2 3 4.7 3 8.2a14 14 0 0 1-.6 4.4c-.4 1.3-1 2.4-1.8 3.4-.8 1-1.7 1.6-3 2-1 .5-2.5.7-4 .7s-2.8-.3-4-.8c-1-.5-2-1.2-3-2-.8-1-1.4-2-1.8-3.4s-.6-2.7-.6-4.3c0-1.6.2-3 .6-4.3.4-1.3 1-2.4 1.8-3.4s1.7-1.7 3-2.2 2.5-.8 4-.8c2.6 0 4.8.8 6.4 2.4zM194 58c-.6 0-1 .1-1.4.4-.3.3-.6.6-.8 1s-.4 1-.4 1.7c-.1.6-.1 1.3-.1 2 0 1 0 2 .1 3 .1.8.2 1.5.4 2 .2.5.5 1 .8 1.2.4.3 1 .4 1.4.4 1.2 0 2-.5 2.3-1.5.4-1 .6-2.5.6-4.4a13 13 0 0 0-.6-4.4c-.4-1-1-1.5-2.2-1.5z"/><path id="V" d="M284.8 54c.2.7.2 1.5.2 2.2s-.1 1.5-.2 2.2H280v9.2c0 1.3.6 2 1.8 2h2.2c.3 1 .5 1.8.5 2.6s-.1 1.4-.2 1.7a41 41 0 0 1-5.4.4c-3.4 0-5-2-5-5.6V58.4h-3a8 8 0 0 1-.3-2.2c0-.8.1-1.6.3-2.3h3v-2.3c0-1.4.3-2.3.8-3 .5-.6 1.4-1 2.6-1h2.4l.3.3V54h4.8z"/><path id="W" d="M347.7 66h-10.4c.1 1.2.4 2 1 2.8s1.5 1 2.8 1c.6 0 1.4-.1 2.2-.3 1-.2 1.8-.5 3-1 1 1 1.4 2 1.6 3.7-2 1.5-4.7 2.3-7.8 2.3a10 10 0 0 1-4.2-.8c-1-.5-2-1.3-2.8-2.2-.7-1-1.2-2-1.5-3.4s-.4-2.7-.4-4.3c0-1.5.2-3 .5-4 .4-1.3 1-2.4 1.6-3.3.7-1 1.7-1.7 2.8-2.2 1-.5 2.5-.8 4-.8 1.3 0 2.4.2 3.4.6 1 .4 2 1 2.6 1.8s1.3 1.6 1.6 2.7c.4 1 .6 2.2.6 3.4 0 1.6-.2 3-.5 4zm-10.5-4.3h5.3v-.4c0-1-.2-1.8-.7-2.4-.4-.6-1-1-2-1-1 0-1.5.3-2 1a6 6 0 0 0-.7 2.9zm6.6-9.8l-3.6-3.5-4 3.8c-1.2-.5-2-1.3-2.8-2.4l4.2-5.4c1.5-.5 3.3-.5 5.2 0l3.6 5c-.2.6-.6 1-1.2 1.6-.5.5-1 .8-1.5 1z"/><path id="X" d="M363.4 54c.2.7.2 1.5.2 2.2s-.1 1.5-.2 2.2h-4.8v9.2c0 1.3.6 2 1.8 2h2.2c.3 1 .5 1.8.5 2.6s-.1 1.4-.2 1.7a41 41 0 0 1-5.4.4c-3.4 0-5-2-5-5.6V58.4h-3a8 8 0 0 1-.3-2.2c0-.8.1-1.6.3-2.3h3v-2.3c0-1.4.3-2.3.8-3 .5-.6 1.4-1 2.6-1h2.4l.3.3V54h4.8z"/><path id="Y" d="M376 65.6L375 48c1.6-1 3.8-1.7 6.6-1.7l.4.5-1.4 18.8c-.3.1-.7.2-1 .2h-1.3c-.4 0-1 0-1.3 0a5 5 0 0 1-1-.2zm-.6 3.5c1-.5 2-.7 3-.7.5 0 1 0 1.3.1.4.1 1 .2 1.6.6.4.7.5 1.5.5 2.4.1.7-.1 1.5-.5 2.3-.6.3-1 .5-1.6.6a7 7 0 0 1-1.4.1c-1 0-2-.2-3-.7-.3-.5-.4-1.3-.4-2.3 0-1 .1-2 .4-2.4z"/></defs></svg>