<svg xmlns="http://www.w3.org/2000/svg" width="239" height="46" fill="none" xmlns:v="https://vecta.io/nano"><path d="M226.5 8.5c-7.6-1.6-14.8 3.3-17.5 6-1.8 7.2-4.4 22.2 0 25s13.5-1.2 17.5-3.5c3.2-8.5 7.6-25.9 0-27.5z" fill="#0da84a"/><path d="M25.8 13v9.8c0 .4-.1.5-.6.5-.4 0-2 0-3.2-.1.4.8 1 1.9 1 2.9a23 23 0 0 0-2.1-1.3l-2.7 2.4c2 1.3 4.6 3.2 5.7 4.6l3-2.6a15 15 0 0 0-2.7-2.4c1.7 0 3-.1 4-.6 1.3-.6 1.5-1.6 1.5-3.4V13h4l-1 2.7-2.2.9a41 41 0 0 1 3.8 7.5l3.5-1.7a38 38 0 0 0-3-6.1l1.4.3a50 50 0 0 0 2.6-6.6l-3-.6-.7.1H24l.8-2-3.8-.9c-1 3-2.8 5.9-5 7.8 1 .6 2.4 1.9 3 2.6 1-1 2.2-2.4 3.2-3.9h3.5zm-5 2.4c-1 2.2-2.4 4.6-4 6.1a19 19 0 0 1 3.3 2.2 25 25 0 0 0 4.5-7.3l-3.8-1zM10 37.9a16 16 0 0 0 5-8.4l-4-1.2c-.8 2.9-2.3 5.6-4.6 7.3l3.4 2.3zm4.3-31.4c-1.8 3.6-5 7.2-8 9.5a24 24 0 0 1 2.5 3.3l2.6-2.4v9.9h4V12.1L18 7.8l-3.7-1.3zm7 28.2c-1.6 0-2-.1-2-1.1v-5.4h-4v5.4c0 3.6 1 4.7 5.5 4.7h5.5c3.4 0 4.6-1.1 5-5.6-1-.2-3-.9-3.7-1.5-.1 3-.4 3.4-1.7 3.4h-4.7zm8-5.2c2.4 2.4 5 5.7 5.8 8.1l3.7-2.1a28 28 0 0 0-6.1-7.9l-3.4 1.9zM46 31.8V25h5.5v6.8H46zm5.5-10.4H46v-5.6h5.5v5.6zm11-9.5c.5-1.5 1-2.9 1.4-4.4l-4-.9a36 36 0 0 1-4.7 11.2v-5.6H50l1.8-5-4.5-.6-1 5.6h-4V38H46v-2.5h9.3V19.2l2.7 1.9a30 30 0 0 0 3.1-5.5h7.4c-.4 12.3-.8 17.5-1.8 18.6-.5.5-.8.6-1.5.6-1 0-3 0-5.2-.2.7 1.1 1.3 2.9 1.4 4l5.5-.1c1.4-.2 2.4-.6 3.3-1.9 1.4-1.8 1.8-7.4 2.3-22.9v-1.9h-9.8zm4 15.9a84 84 0 0 0-5.1-7.7l-3.2 1.8 4.8 8 3.5-2.2zm20-17.6C85 9 82 7.5 79.8 6.7l-2.3 3.1c2.3.9 5 2.6 6.5 3.8l2.4-3.4zM84 19.3a28 28 0 0 0-6.8-3.3l-2 3.1c2.3.9 5.2 2.4 6.6 3.7l2.3-3.5zm-1 5.5c-2 4-4.7 8.3-6.6 11l3.5 2.8c2-3.4 4.3-7.3 6-11l-3-2.8zM98.8 34v-6.4h7v-3.9h-7V18h8.3v-4h-8l2-2.4a35 35 0 0 0-8.2-5.2l-3 3.3a36 36 0 0 1 6.8 4.4H86.6v4h8v5.7H88v3.9h6.6V34h-9v3.9H108V34h-9zM131 20.1v-7.5h3.6v7.5H131zm-6.6 4h2.5a27 27 0 0 1-2.6 11.2V24.1zm-7-4v-7.5h3v7.5h-3zm24.6 0h-3.3V8.7H127v11.4h-2.6V8.7h-11v11.4H110v4h3.5c-.2 4.2-1 8.9-3.6 12.3a17 17 0 0 1 3 3c3.2-4 4.3-10.1 4.6-15.3h3.2v10.5c0 .5-.2.6-.7.6a36 36 0 0 1-3.3 0c.5 1 1 2.6 1.3 3.7 2.3 0 4-.1 5-.7.7-.3 1-.8 1.3-1.5 1 .7 2.2 1.9 2.7 2.6a30 30 0 0 0 4-15.2h3.7v10.3c0 .5-.1.7-.7.7-.4 0-2 0-3.3-.1.6 1 1 2.8 1.3 3.9 2.4 0 4-.1 5.2-.8s1.6-1.7 1.6-3.7V24.1h3.3v-4zm14.4 13.8c-3.8 0-4.5-.3-4.5-2.5V24h15.8v1.6h4.3V8.5h-25.8v4.1h21.5V20H152v-4.7h-4.3v16.2c0 5.3 2 6.6 8.8 6.6H168c6.3 0 8-1.9 8.7-8.5-1.2-.2-3-.9-4.2-1.6-.5 5-1 5.9-4.7 5.9h-11.4zM211 12.8c-.6-1.6-2-3.9-3.6-5.5l-3.2 1.5c1.5 1.7 2.8 4.1 3.3 5.7l3.4-1.7zm-15-2.3h-6.3v-4h-4.2v3.9H179v3.8h17v-3.8zm-15 16.8c-.5 2.8-1.5 5.6-2.8 7.4 1 .5 2.4 1.6 3 2.3 1.5-2.2 2.8-5.6 3.5-8.9l-3.8-.8zm3.5-7.7h6v3h-6v-3zm10 6.4v-9.8h-13.8V26h5v8.8c0 .4-.1.5-.6.5h-2.8a16 16 0 0 1 1.2 3.7c2 0 3.5 0 4.6-.7 1.2-.6 1.5-1.7 1.5-3.4V26h4.8zm12.3 8.8c-.2 0-.4-.1-.6-.2-.1-.1-.1-.3-.1-.5V20.5h-2.7l.1-1.5h7.4v-3.9h-7.4V6.5h-4v8.6h-4V19h3.8a29 29 0 0 1-3.7 13.6c-.4-1.6-1.3-4-2.2-5.8l-3.2 1.1 2 6.1 3.2-1.2c-.8 1.4-2 2.6-3 3.8a18 18 0 0 1 3.5 2.4c3.4-3.3 5.3-7.4 6.3-11.7v6.9c0 2.2.2 2.9.8 3.5s1.6.9 2.5.9h2c.8 0 1.6-.2 2-.6a3 3 0 0 0 1.2-1.9c.2-.8.4-2.9.5-4.8-1-.3-2.3-1-3-1.6l-.1 3.9c0 .3-.2.7-.3.8s-.4.2-.6.2h-.7zm20.7-7.7h3.5l1-17.1h-5.8l1 17.1zm1.8 9.3c1.7 0 3-1.3 3-3.1s-1.3-3.1-3-3.1-3 1.3-3 3.1 1.3 3.1 3 3.1z" fill="#fff"/><path fill-rule="evenodd" d="M29.7 13v10.9c-.1.8-.2 1.3-.6 1.8v.2l-.1.1c-.2.1-.4.3-.6.4l-.4.2c-.2.1-.5.2-.8.2-.5.1-1 .2-1.5.2h-1.3l1.4 1 1 1 .3.3-3 2.6v-.1l-1-1.1-.8-.7c-.2-.2-.5-.4-.7-.6l-3-2.1 2.7-2.4 2 1.3a12 12 0 0 0-.3-1l-.5-1.2-.3-.7c.2 0 .3 0 .5 0h2.7c.4 0 .5-.1.6-.5h0V13h-3.5c-.3.5-.7 1-1 1.5l-.6.8-.8.9c-.2.2-.4.5-.7.7l-2.8-2.8.4-.3.4-.4c.4-.4.8-.8 1-1.3l.5-.7L20 9l.4-.9.5-1.5 3.8.9-.8 2 14.6.5-2.6 6.6-1.4-.3 2 3.4 1 2.4.1.3-3.5 1.7-.5-1.2-2.3-4.6-1-1.7 2.2-.9 1-2.7h-4zM19.5 28.2h-4V34c0 2.2.6 3.4 2 4 .8.3 2 .4 3.4.4h5.5c1 0 1.8-.1 2.5-.3h.1c.8-.3 1.3-.8 1.7-1.7.2-.5.4-1.2.6-2l.2-1.5-.2-.1a14 14 0 0 1-1.7-.6l-.3-.1H29c-.5-.2-1-.5-1.3-.7l-.1 1.1c-.1 1.7-.4 2.2-1.3 2.3h-.1c-.1 0-.2 0-.3 0h-4.7a17 17 0 0 1-.5 0h-.4c-.7-.1-1-.3-1-.9v-5.5zm11.8 3.2l2 2.7c.7 1.1 1.4 2.1 1.8 3.1l.2.4 3.7-2.1c-.3-.7-.7-1.5-1.3-2.3L35 29.8l-1-1.1c-.4-.4-.7-.7-1-1.1l-3.4 1.9 1.8 1.9zm7.4 10.9l-.6.3c-1.5.8-3.2.9-4.8.4-.3-.1-.5-.2-.8-.4-2 1.3-4.5 1.5-6 1.5H21c-2 0-5-.1-7.3-1.8l-.2.2c-2 1.5-4.7 1.5-6.7.1l-3.4-2.3C1.7 39.3.7 37.6.7 35.7s1-3.6 2.4-4.7c1-.7 2-2 2.4-3.9v-2.8c-.8-.5-1.4-1.1-2-1.9-.1-.2-.4-.7-.8-1.2l-.7-1C1 18.9.2 17.2.4 15.6s1-3.2 2.3-4.2C5 9.6 7.7 6.7 9 3.9c1.3-2.5 4.3-3.7 7-2.8l1.8.6c1.3-.8 3-1.1 4.5-.7l3.8.9c1.2.3 2.2.9 3 1.8h5.4c.8-.2 1.6-.2 2.4 0l3 .6c.7.1 1.3.4 2 .8.3-1.2 1-2.3 2-3.1C45 1.1 46.6.6 48 .8l4.5.6c1.2.2 2.2.7 3 1.4C57 1.3 59.2.5 61.4 1l4 .9c1.5.3 2.8 1.3 3.6 2.6.3.5.5 1.1.7 1.7H73l2-2.9c1.5-2.1 4.3-2.9 6.7-2L87.4 4l1-1.3C90.2.8 93 .2 95.3 1.2c3 1.4 7.4 3.9 9.8 6.3.3.2.5.5.7.8h1.3c.2 0 .4 0 .7 0 .2-3 2.7-5.4 5.7-5.4h11c.4 0 1 .1 1.3.1.4-.1 1-.1 1.3-.1h11.7c1.4 0 2.6.5 3.6 1.3 1-.9 2.4-1.5 3.8-1.5H172c2 0 3.7 1 4.7 2.5.7-.3 1.5-.5 2.3-.5h1c.8-2.3 3-3.9 5.5-3.9h4.2c2 0 4 1.2 5 2.9 1-1.7 3-2.9 5-2.9h4c1 0 2 .3 3 .8 1.8-.3 3.7.3 5 1.7 2 2.1 4 5.1 4.8 7.6.4 1 .4 2.1.2 3.1.1.4.1.8.1 1.2v3.9c0 2.9-2 5.2-4.8 5.7v.4c.2.1.3.3.5.4 0 0 .1.1.2.1l.4.2.2.1c2.5.8 4 3.1 4 5.7l-.2 3.1-.5 2.9c-.5 2.2-1.7 3.8-3.3 5h-.1c-1.8 1.3-4 1.7-5.5 1.7h-2c-1.4 0-3.5-.3-5.3-1.5l-.4.3c-2.2 2.1-5.7 2.1-8 0 0 0 0 0 0 0h-.1c-.1 0-.1-.1-.2-.2l-.1-.1-.7.4c-2.5 1.4-5.4 1.4-7 1.3h-.3c-2 0-3.7-1-4.7-2.5-.5-.2-1-.6-1.5-.9-3 2.2-6.4 2.6-9.4 2.6h-11.5c-3.3 0-7.3-.2-10.3-2.4-1-.7-1.7-1.5-2.3-2.4-.8 1.8-2 3.2-3.7 4.2-1.5.9-3 1.2-4.3 1.4-1.2.2-2.6.2-3.7.2-.8 0-1.5-.2-2.2-.4-.8.5-1.8.7-2.8.8-1.2 0-2.3-.3-3.3-1l-2.2.4c-1.2.1-2.5.2-3.7.2-.7 0-1.5-.1-2-.4-1 .6-2 .9-3.2.9-1.4 0-2.8-.6-3.8-1.5-.3.1-.6.1-1 .1H85.4c-.7 0-1.3-.1-2-.3-.7.5-1.5.8-2.3 1-1.6.3-3.3-.1-4.6-1.2l-2.6-2a10 10 0 0 1-2.6 2c-1.3.7-2.6 1-3.5 1.2h-.2c-2 .2-4.5.2-6.4.1-2.2-.1-4-1.4-5-3.3-.3 0-.5.1-.8.1H51c-1 1.5-2.8 2.5-4.8 2.5h-3.8c-1.4 0-2.7-.5-3.8-1.4zm16.8-6.9V19.2l2 1.4a12 12 0 0 1 .4.3l.3.2c.2-.3.5-.7.7-1l.6-.9a31 31 0 0 0 .8-1.4l.8-1.7c.1-.1.1-.3.2-.4h7.4l-.6 12a73 73 0 0 1-.2 2c-.3 2.5-.6 3.9-1 4.5l-.1.1c-.1.1-.3.2-.4.3l-.2.1h0c-.3.1-.5.2-1 .2-.7 0-2 0-3.7-.1l-1.5-.1v.1c.1.2.2.4.4.7.2.4.4.9.5 1.4.2.7.4 1.3.4 1.9h3.8c.6 0 1.2-.1 1.6-.1 1.2-.2 2-.5 3-1.4l.1-.2c.1-.1.2-.3.3-.4.3-.4.6-.9.8-1.7l.2-1 .5-3.3.5-18.8h-9.4l.7-2 .7-2.4-4-.9-.5 1.7-1.3 3.9a37 37 0 0 1-.7 1.7l-1.3 2.6-.5.8c-.1.2-.2.3-.3.5v-5.6H50l1.8-5-4.5-.6-.4 2.7c0 .3-.1.5-.2.8l-.5 2.1h-4V38H46v-2.5h9.3zm-3.8-3.7V25H46v6.8h5.5zm-5.5-16v5.6h5.5v-5.6H46zm-35 11.1h4V12.1c1-1.2 1.7-2.6 2.4-3.9l.3-.5-3.7-1.3c-.6 1.1-1.3 2.3-2 3.4l-1 1.3-1.7 1.9c-.3.4-.7.7-1 1L6 16c.2.2.5.6.8.9.6.8 1.3 1.8 1.7 2.4l1-.7c.5-.5 1-1 1.6-1.5l.2-.2v9.9zm7.4-4.2l1.5 1c.2-.3.5-.6.8-.9l1.6-2.3.6-1c.1-.2.2-.3.3-.5l.7-1.4c.1-.3.2-.5.3-.8l.2-.4-3.8-1c-.2.5-.4 1-.6 1.4l-.2.3-.7 1.1c-.3.5-.6 1-1 1.4-.3.4-.6.7-1 1l-.3.3c-.1.1-.2.2-.3.3l-.2.2.2.1c.4.2.8.5 1.2.8l.3.2zm-9.2 9.6c-.5.9-1.2 1.7-2 2.4l-1 .9 3.4 2.3c.1-.1.2-.1.3-.2a11 11 0 0 0 2.4-2.8c.3-.4.5-.8.7-1.3l.5-1 .5-1.3c.2-.6.4-1.2.6-1.8L11 28.3v.2a16 16 0 0 1-.7 2l-.3.6c-.1.3-.3.6-.5.9l-.2.3zm76 1.7v3.9h22.4V34h-9v-6.4h7v-3.9h-7V18h8.3v-4h-8l2-2.4-1.3-1.1-.7-.5c-.7-.5-1.4-1-2.2-1.4l-.5-.3a41 41 0 0 0-3.5-1.8L90 9.7l2 1.1c.6.3 1 .7 1.7 1l2 1.4c.4.3.8.6 1 .9H86.6v4h8v5.7H88v3.9h6.6V34h-9zM84 31.9l2.3-4.3-3-2.8-.5 1-6 10 3.5 2.8 4-6.7zm-2.2-9.1l-.2-.2-1.2-.8-1.4-.8c-.3-.2-.6-.3-1-.5l-2.8-1.3 2-3.1.8.3 2.7 1.1c.4.2.7.4 1 .5l1 .5c.3.2.7.4 1 .6v.2l-2.3 3.5zm2.2-9.2l-.2-.2a14 14 0 0 0-1.1-.9c-.3-.2-.6-.4-1-.6l-3.2-1.7-1-.4 2.3-3.1 1.6.7a33 33 0 0 1 2.9 1.4l1 .6 1 .8-2.4 3.4zm26 6.5h3.6V8.7h11v11.4h2.6V8.7h11.7v11.4h3.3v4h-3.3v10.4c0 1.7-.3 2.7-1 3.4-.1.1-.3.2-.4.3l-.2.1c-.7.4-1.6.5-2.7.6H132c-.1-.8-.4-1.9-.8-2.9-.1-.3-.3-.6-.4-.9 0 0 0-.1-.1-.1h.1c0 0 0 0 .1 0l3 .1c.5 0 .6-.2.7-.6 0 0 0 0 0-.1V24.1l-3.7.2c0 0 0 0 0 0v1.5l-1.4 7.8-1.4 3.7v.5l-1 1.5c-.2-.3-.7-.8-1-1.2l-1.5-1.4c-.1.2-.1.4-.3.6-.1.2-.3.4-.5.5-.1.1-.2.2-.3.2l-.3.2c-.7.4-1.6.6-2.8.7l-2.3.1c-.1-.7-.4-1.8-.8-2.6l-.5-1c0 0 .1 0 .1 0h3c0 0 .1 0 .1 0 .5 0 .7-.2.7-.6V24.1l-3.2.2v.1a49 49 0 0 1-.1 1.4l-.8 5.1-.8 2.9-.3.7c-.2.6-.5 1.1-.7 1.7-.3.6-.6 1.2-1 1.8a15 15 0 0 1-.5.8l-.4.5c-.2-.3-.6-.8-1-1.2l-.2-.2c-.5-.5-1-1-1.4-1.3l-.3-.2c.2-.3.4-.6.6-.9l.5-.8.3-.6c.4-.8.7-1.6 1-2.5l.5-1.7c.3-1.3.5-2.7.6-4l.1-1.8H110v-4zm7.6 0h3v-7.5h-3v7.5zm7.7 13.9l-.6 1.3c0-.2 0-.4 0-.7V24.1h2.5v1.7l-1 5.3-.3 1.1-.6 1.7zm9.6-13.9v-7.5H131v7.5h3.6zm46 16.5l.3.3 1.3-2.2.5-1.2.7-2a30 30 0 0 0 .2-.7l.7-2.5c0 0 0-.1 0-.1 0-.1 0-.2.1-.3l-3.8-.8-1.2 4.4a17 17 0 0 1-.7 1.5c-.3.6-.6 1.1-1 1.5.6.3 1.5 1 2.2 1.5l.5.5zm5-10.7v8.9c0 .3-.2.4-.6.4-.1 0-.4 0-.8 0h-2l.2.4.7 1.8.4 1.5h1.6c.6 0 1.2-.1 1.7-.2h.3c.3-.1.6-.2 1-.3.1 0 .1-.1.2-.1l.1-.1c.4-.2.6-.5.8-.8.4-.6.5-1.4.5-2.6v-8.9h4.8v-9.8h-13.8v9.8h5zM196 14.2v-3.8h-6.3V6.5h-4.2v3.9H179v3.8h17zm-24-5.7h-25.8v4.1h21.5V20H152v-4.7h-4.3v16.2c0 5.2 2 6.6 8.7 6.6H168c2.2 0 3.8-.2 5-.8 1-.5 1.6-1.1 2.2-2.1.2-.4.4-.9.6-1.4.1-.2.1-.5.2-.7.2-.9.4-1.9.6-3.1v-.4l-.5-.1c-.5-.1-1-.3-1.6-.5a13 13 0 0 1-2.1-1l-.5 3.5c-.3 1.1-.7 1.7-1.4 2-.6.3-1.4.4-2.6.4h-11.5c-3.8 0-4.5-.3-4.5-2.5v-7.4h15.8v1.6h4.3V8.5zm-14.3 23.1c0 0 0 0 0 0h0zm42-16.5h-4v3.9l3.8.1-.1 1c0 .2 0 .4-.1.6l-1 5.5-.3 1-1.5 3.9v.1a20 20 0 0 1-.4.8l-.4.6-.3-1.1-1.7-4.3-.2-.4-3.2 1.1 2 5.6c0 .2.1.4.1.5l3.2-1.2-.2.3c-.1.1-.2.3-.3.4l-1 1.3-1.7 1.8 1 .6 1.4 1c.1.1.1.1.2.2l.8.7 1.2-1.2c.1-.1.2-.2.2-.3l2-2.7.4-.6.6-1.2c.3-.6.5-1.1.8-1.7l.2-.4c.4-1.2.8-2.4 1-3.5v6.9c0 1.7.1 2.5.4 3 .1.1.2.3.3.4l.1.1c.2.2.5.4.8.6.5.2 1 .3 1.7.3h2c.8 0 1.6-.2 2-.6.4-.3.6-.6.8-1 .1-.1.2-.3.2-.5 0-.1.1-.3.1-.4.1-.4.2-1.2.3-2.2l.1-2.6-.4-.1c-.2-.1-.3-.1-.5-.2l-.6-.3c-.6-.3-1-.6-1.5-1l-.1 4.2c-.1.2-.1.4-.2.5 0 0 0 0-.1.1 0 0-.1.1-.2.1-.1 0-.1.1-.2.1h-.2-.7c-.1 0-.3 0-.4-.1 0 0-.1 0-.1-.1s-.1-.1-.1-.1c-.1-.1-.1-.1-.1-.2 0-.1 0-.2 0-.3V20.5h-2.7l.1-1.5h7.4v-3.9h-7.4V6.5h-4v8.6zm7.8-1l.1.4 3.4-1.7c-.2-.6-.6-1.4-1-2.1l-.8-1.3-1.2-1.5-.5-.6-3.2 1.5.7.9c.2.2.3.4.5.7l.5.8c.5.7.8 1.5 1.2 2.2.1.1.1.2.2.4l.2.4zm-23 8.4h6v-3h-6v3zM66.7 27.8l-4-6.3-1-1.4-3.2 1.8 4.8 8 3.5-2.2zm155.2.6c-.1-.3-.1-.5-.1-.8l-1-11.9c0-.1 0-.2 0-.3l-.2-5.2c-.1-1.6.5-3.1 1.6-4.2s2.6-1.8 4-1.8h5.8c1.6 0 3 .6 4 1.8s1.7 2.6 1.6 4.2l-1 17.3c0 .3-.1.6-.1.8 1 1.4 1.4 3.1 1.4 4.9 0 5.1-4 8.8-8.8 8.8-2.3 0-4.5-.8-6.2-2.5-1.7-1.7-2.6-4-2.6-6.3 0-1.8.5-3.5 1.4-4.9zm5.6-1.3h3.5l1-17.1h-5.8l1 17.1zm-1.2 5.6c0 .2 0 .4 0 .6 0 1.8 1.3 3.1 3 3.1 1.7 0 3-1.3 3-3.1v-.6c-.1-.9-.6-1.6-1.2-2-.5-.3-1-.5-1.8-.5s-1.3.2-1.8.5c-.7.4-1 1.1-1.2 2z" fill="#0da84a"/></svg>