<svg width="1920" height="1080" viewBox="0 0 1920 1080" fill="none" xmlns="http://www.w3.org/2000/svg">
<g clip-path="url(#clip0)">
<path d="M64.7256 47.5808C67.193 49.4812 69.6025 52.2043 70.9693 54.1972C70.9569 59.8858 70.2551 65.6959 68.7714 70.5269L64.7256 47.5808ZM55.9088 87.4169L59.6511 86.7571L61.0923 94.931C61.2485 95.8173 61.1037 96.1475 60.3158 96.2864C59.8234 96.3732 58.7401 96.5643 57.5584 96.7726L55.9088 87.4169ZM41.283 79.3338C40.878 76.4604 40.4729 73.5872 40.0214 71.0267L43.3698 70.4363L44.8284 78.7087L41.283 79.3338ZM43.7628 36.9595C43.5018 38.9348 43.1598 41.026 42.7656 42.8217L34.0993 44.3497C34.673 42.4208 35.131 40.4107 35.6874 38.3833L43.7628 36.9595ZM37.1043 54.4819L40.4526 53.8915L41.616 60.4897L38.2677 61.0801L37.1043 54.4819ZM54.6155 58.1976L50.8732 58.8575L49.7098 52.2593L53.4521 51.5994L54.6155 58.1976ZM57.8278 76.4166L54.0856 77.0764L52.627 68.804L56.3692 68.1442L57.8278 76.4166ZM117.362 71.403L104.067 73.7471L102.799 66.558L114.223 64.5438L112.122 52.6276L100.698 54.6418L99.4652 47.6497L85.9733 50.0285L87.2062 57.0207L82.6761 57.8194C82.7574 55.9773 82.8388 54.1352 82.8217 52.3105L74.0572 52.1296C82.9329 44.8783 85.1064 36.4732 84.8298 26.2661L93.8901 24.6686C94.7059 31.0235 94.6998 33.8678 94.1667 34.8757C93.6336 35.8835 92.8805 36.2194 91.7972 36.4104C90.5169 36.6361 88.4315 36.9023 85.7204 37.0757C88.0313 39.816 90.0639 44.4332 90.886 47.9438C94.8426 47.3478 98.469 46.6068 100.665 45.8135C103.138 44.8697 105.05 43.6187 106.423 41.0411C108.104 37.9016 107.641 30.672 105.309 15.1411C105.147 13.6465 104.742 10.7732 104.742 10.7732L60.2288 18.6217L62.2777 30.2425L72.0274 28.5235C71.9685 34.5248 70.2415 39.7034 64.1352 44.2325L63.2496 39.21L55.0757 40.6512C56.2696 36.4805 57.313 32.0317 58.0666 28.2433L48.7928 24.5983L47.0085 25.4206L37.7513 27.0528C38.1571 24.7473 38.3486 22.3781 38.5401 20.0088L25.4484 19.474C24.9195 31.4477 21.9112 43.7571 16.5632 52.0111C18.9729 53.0078 22.7089 55.1923 25.553 56.9247L28.2618 72.2878C30.2065 83.3176 32.3014 98.0781 27.3932 109.402C30.3764 110.196 36.1689 112.526 38.6828 114.114C41.725 107.18 42.5141 98.4098 42.1215 89.8479L46.6516 89.0491L49.4472 104.905L58.7044 103.272L58.0793 99.727C59.585 102.508 61.0965 105.897 61.7102 108.226C65.8464 107.496 68.8472 106.663 71.24 104.108C73.6328 101.554 73.5986 97.9046 72.7651 93.1775L69.4833 74.5646C72.4665 75.3587 76.5387 76.57 78.6529 77.6188C79.5048 75.5393 80.2872 73.0659 80.8379 70.4302L89.3073 68.9369L90.5748 76.126L72.5528 79.3036L74.706 91.5152L92.728 88.3376L95.4368 103.701L108.929 101.322L106.22 85.9587L119.515 83.6146L117.362 71.403Z" fill="#e7f5ff"/>
<path d="M167.017 27.9202C167.224 36.0071 166.719 43.5087 165.288 50.3614C162.924 49.0519 160.561 47.7424 158.215 46.5313C158.674 41.0687 158.964 35.2296 159.139 29.3093L167.017 27.9202ZM170.646 13.3691L168.352 14.1798L159.39 15.7599C159.396 9.46308 159.322 3.2821 158.987 -2.64983L144.534 -1.11684C145.1 4.97732 145.459 11.616 145.504 18.2082L137.33 19.6495L139.639 32.7474L145.351 31.7403C145.084 40.0125 144.515 47.7284 143.703 54.0657C149.107 57.073 155.224 60.6654 161.063 64.4085C157.731 72.0024 152.956 78.3275 146.67 82.9898C150.076 85.0294 154.756 89.6875 157.334 92.7871C164.037 87.0358 169.251 80.3284 173.041 72.4507C177.13 75.4868 180.808 78.4938 183.415 81.182L190.6 67.2223C187.449 64.3255 183.029 61.1445 178.002 57.9693C180.929 45.7758 181.418 31.2706 179.758 13.7933L170.646 13.3691ZM234.139 23.904L215.527 27.1858L214.45 21.08C220.261 13.1505 224.99 3.68568 228.449 -4.3369L217.681 -9.54626L214.454 -8.26653L178.41 -1.91127L180.685 10.9897L207.57 6.24934C205.386 11.7117 202.43 17.4114 199.215 21.6339L200.656 29.8078L180.861 33.298L183.258 46.8884L203.052 43.3982L207.428 68.2154C207.688 69.6926 207.167 70.1907 205.493 70.4859C203.917 70.7637 197.91 71.8229 193.443 72.4073C196.073 75.8023 199.183 81.3465 200.584 85.2627C208.364 83.8909 214.319 82.5363 218.583 79.6521C222.83 76.6694 223.583 72.881 222.351 65.8888L217.923 40.7762L236.536 37.4944L234.139 23.904Z" fill="#e7f5ff"/>
<path d="M310.131 -24.8316L307.02 -23.4707L239.758 -11.6111L242.258 2.57018L295.438 -6.80641C290.467 -0.446597 284.117 6.15633 277.982 11.0967L285.465 53.542C285.761 55.2162 285.06 55.8475 282.893 56.2295C280.628 56.6289 272.257 58.1048 265.902 58.9207C268.844 62.3621 272.632 68.2945 274.167 72.3902C283.343 70.8739 290.677 69.2761 295.81 66.1372C300.96 63.0967 302.055 58.9434 300.701 51.2619L294.398 15.5133C305.371 5.75973 315.707 -7.02935 323.066 -18.278L310.131 -24.8316Z" fill="#e7f5ff"/>
<path d="M448.013 -36.1453C444.422 -40.3862 437.106 -45.595 431.204 -49.1237L421.755 -39.9435C427.709 -36.1193 434.816 -30.366 437.897 -26.1367L448.013 -36.1453ZM437.489 -8.29485C436.098 -4.08944 434.18 0.00583243 432.013 3.84038C430.397 -0.139543 428.909 -4.54814 427.386 -9.15367L451.908 -13.4773L449.529 -26.9692L423.629 -22.4025C421.394 -31.0457 419.501 -40.0539 418.153 -48.8534L403.184 -46.2141C404.712 -37.5477 406.703 -28.5569 408.955 -19.8152L391.721 -16.7765L389.759 -27.9048C395.181 -29.9779 400.488 -32.132 405.25 -34.4948L393.446 -45.0048C383.597 -39.8158 369.05 -34.2047 355.46 -30.0822C357.591 -27.2086 360.417 -22.1221 361.616 -18.7794C366.175 -19.9895 370.896 -21.4312 375.699 -22.9888L377.244 -14.224L359.912 -11.1679L362.291 2.32399L379.623 -0.732101L381.551 10.1993C374.471 12.666 367.832 14.7504 362.636 16.3775L368.537 30.2638L384.068 24.479L386.013 35.5089C386.291 37.0846 385.787 37.6812 384.014 37.9937C382.259 38.4048 376.547 39.4119 371.374 40.0194C374.137 43.594 377.646 49.677 378.949 53.6105C386.926 52.204 393.043 50.6177 397.076 47.5712C401.108 44.5248 401.81 40.4409 400.525 33.1533L398.059 19.169C402.908 17.2986 407.855 15.4109 412.704 13.5405L409.427 0.714706L395.645 5.48018L394.1 -3.28462L412.614 -6.54906C415.312 2.41866 418.399 10.7087 421.804 17.9271C416.028 24.3273 409.504 29.9454 402.61 34.6134C406.728 37.2382 411.518 41.3692 414.211 44.5499C419.466 40.374 424.454 35.8389 429.06 30.8635C434.725 38.8006 441.079 43.1635 447.874 41.9654C457.722 40.229 461.343 35.4273 460.332 17.0232C456.312 16.1074 450.896 13.6099 447.253 10.7998C448.723 22.015 448.455 26.8346 446.781 27.1298C444.713 27.4944 441.823 24.3485 438.713 18.8043C443.725 11.5234 448.007 3.55887 451.05 -5.10098L437.489 -8.29485Z" fill="#e7f5ff"/>
<path d="M467.683 -58.1958C466.487 -43.6675 462.65 -28.5719 457.174 -18.1629C460.099 -14.82 465.121 -7.07429 466.731 -3.70262C467.264 -4.7105 467.797 -5.71837 468.33 -6.72624L475.953 36.5069L489.543 34.1106L477.562 -33.8412C479.365 -41.4701 480.721 -49.325 481.556 -56.6818L467.683 -58.1958ZM495.336 32.9877L509.32 30.522L496.888 -39.9903L482.903 -37.5246L495.336 32.9877ZM484.302 -54.9319C489.596 -49.6713 496.257 -42.4176 499.228 -37.6613L509.563 -46.9978C506.216 -51.5862 499.231 -58.3765 494.006 -63.2433L484.302 -54.9319ZM542.342 -68.4149L505.806 -61.9729L508.063 -49.1704L530.419 -53.112L541.445 9.42339C541.705 10.9006 541.317 11.5783 539.741 11.8561C538.281 12.2151 533.16 13.118 529.169 13.5171C531.55 16.6514 534.561 22.213 535.696 25.7699C543.476 24.3982 548.84 23.1477 552.496 20.2692C556.152 17.3907 556.824 13.7181 555.661 7.11992L542.342 -68.4149Z" fill="#e7f5ff"/>
<path d="M652.988 -10.7515L653.682 -6.81223L614.29 0.133408L613.595 -3.80583L652.988 -10.7515ZM602.273 14.3357L616.356 11.8526L615.939 9.48909L655.332 2.54344L655.748 4.907L670.521 2.30238L666.128 -22.6133L597.88 -10.58L602.273 14.3357Z" fill="#e7f5ff"/>
<path d="M-1.67192 274.254L-2.34914 270.413L8.8777 268.433L9.55489 272.274L-1.67192 274.254ZM6.44673 254.646L7.03709 257.994L-4.18971 259.974L-4.78011 256.625L6.44673 254.646ZM18.579 240.525L-20.0255 247.331L-9.86754 304.943L3.3289 302.616L0.168655 284.692L11.3955 282.713L12.0727 286.554C12.281 287.735 11.9392 288.1 10.7574 288.309C9.59302 288.616 5.85077 289.275 2.9601 289.582C5.32313 292.618 8.36361 297.768 9.71281 301.389C15.5232 300.364 20.117 299.351 23.4773 296.525C26.8549 293.797 27.3305 290.159 26.306 284.349L18.579 240.525ZM-3.19884 218.37C-1.53657 220.311 0.17778 222.547 1.79366 224.801L-8.60487 227.446C-5.87567 222.193 -3.26803 216.25 -1.59309 210.776L-17.6333 209.644C-18.8625 217.07 -21.9338 224.415 -23.0811 226.546C-24.2921 228.892 -25.7232 230.566 -27.3106 231.354C-24.9766 234.801 -21.4496 240.982 -20.1409 243.798C-17.5918 242.13 -13.5944 240.613 8.10063 234.655C9.00407 236.324 9.77428 237.812 10.3302 239.238L22.5252 231.807C19.9367 225.765 13.7453 217.718 8.21407 211.686L-3.19884 218.37ZM54.3494 243.56C64.0005 241.858 67.083 237.456 66.2507 224.097C62.2711 223.987 56.0787 222.845 52.9392 221.164C53.8707 229.327 53.5229 230.809 50.6669 231.313L42.5915 232.737C39.3416 233.31 38.7798 233.003 38.1373 229.359L37.5296 225.912C45.1883 222.125 53.3974 217.428 60.0599 212.598L49.2749 203.837C45.5901 207.127 40.6426 210.741 35.4632 214.193L33.2233 201.489L19.1405 203.972L24.0892 232.039C26.2598 244.349 29.9261 247.866 42.6302 245.626L54.3494 243.56ZM51.4765 280.825C48.1281 281.415 47.4678 281.125 46.8079 277.383L45.7834 271.573C53.6681 267.339 62.0221 262.312 68.8121 257.053L57.6159 248.264C53.9659 251.751 48.9892 255.776 43.6303 259.361L41.564 247.642L27.3827 250.142L32.644 279.982C34.8319 292.39 38.6952 295.873 51.3992 293.633L63.4139 291.514C73.5575 289.726 76.472 284.947 75.4314 270.407C71.4344 270.198 65.3404 269.038 62.004 267.393C63.1786 276.934 62.9002 278.81 59.8473 279.349L51.4765 280.825Z" fill="#e7f5ff"/>
<path d="M118.794 206.507L115.304 186.712L100.04 189.403L103.53 209.198L74.3795 214.338L76.9668 229.011L105.526 223.976C106.671 240.833 103.395 261.415 82.1385 277.348C86.1353 279.283 92.5415 283.941 95.5301 287.07C120.106 267.505 122.925 242.029 120.889 221.267L145.411 216.943C148.703 243.678 149.02 256.416 146.668 259.776C145.515 261.299 144.402 261.901 142.433 262.249C139.675 262.735 134.16 263.707 128.066 264.274C131.553 267.924 134.767 274.059 135.711 278.259C141.654 277.414 147.76 276.338 151.479 274.971C155.986 273.466 158.912 271.63 161.415 266.822C164.892 260.624 164.106 245.227 159.153 206.194C159.02 204.288 158.285 199.543 158.285 199.543L118.794 206.507Z" fill="#e7f5ff"/>
<path d="M217.5 186.666C213.712 182.46 205.847 176.434 200.118 172.164L192.065 181.199C197.863 185.863 205.421 192.451 208.931 196.808L217.5 186.666ZM220.853 237.354L214.272 200.029L193.295 203.728L195.709 217.417L204.375 215.889L209.15 242.971C210.053 248.092 207.683 253.079 205.667 255.466C208.314 257.233 213.075 261.775 214.76 264.423C215.821 261.799 218.092 258.555 229.564 244.144C228.093 241.56 225.725 236.19 224.769 232.5L220.853 237.354ZM250.146 245.694C250.354 246.876 250.03 247.339 248.848 247.547C247.765 247.738 244.631 248.393 241.642 248.716C244.162 244.007 246.364 238.643 247.941 233.187L250.146 245.694ZM236.746 214.04L244.329 212.703L244.954 216.248L237.371 217.585L236.746 214.04ZM232.787 191.586L232.249 188.533L239.832 187.196L240.37 190.249L232.787 191.586ZM234.489 201.237L242.072 199.9L242.627 203.052L235.044 204.389L234.489 201.237ZM283.928 176.984L278.709 177.904L275.375 158.996L262.474 161.271L265.808 180.179L252.808 182.471L255.118 195.569L268.117 193.277L271.764 213.958C269.563 208.964 266.552 203.403 263.517 198.861L254.665 203.366L249.525 174.216L240.071 175.883C240.929 172.685 241.85 169.273 242.575 165.896L228.359 166.473C228.44 169.81 228.364 173.987 227.958 178.019L218.897 179.616L225.947 219.599L221.909 220.311L223.958 231.932L236.859 229.657C234.698 237.553 230.723 244.955 225.792 250.394C228.538 252.144 233.409 256.159 235.384 258.146C237.562 255.528 239.654 252.418 241.497 249.047C243.495 251.741 245.939 256.387 246.871 259.37C252.681 258.346 256.765 257.321 259.587 254.894C262.391 252.369 262.722 249.061 261.801 243.842L255.029 205.434C258.875 212.27 262.587 220.653 264.15 226.064L273.066 221.344L276.313 239.76C276.573 241.237 276.151 241.718 274.789 242.06C273.41 242.303 269.471 242.997 265.694 243.46C268.04 246.397 271.098 251.646 272.279 254.89C278.877 253.727 283.517 252.401 286.698 249.708C289.78 247.032 290.291 243.591 289.231 237.584L281.018 191.002L286.238 190.082L283.928 176.984Z" fill="#e7f5ff"/>
<path d="M315.981 169.302C312.193 165.096 304.327 159.07 298.599 154.8L290.546 163.835C296.344 168.499 303.902 175.087 307.412 179.444L315.981 169.302ZM319.334 219.99L312.753 182.665L291.776 186.364L294.19 200.053L302.856 198.525L307.631 225.607C308.534 230.728 306.164 235.715 304.148 238.102C306.795 239.869 311.556 244.411 313.241 247.059C314.302 244.435 316.573 241.191 328.045 226.78C326.574 224.196 324.206 218.826 323.25 215.136L319.334 219.99ZM348.627 228.33C348.835 229.512 348.511 229.975 347.329 230.183C346.246 230.374 343.112 231.028 340.122 231.352C342.643 226.643 344.845 221.279 346.422 215.823L348.627 228.33ZM335.227 196.676L342.81 195.339L343.435 198.884L335.852 200.221L335.227 196.676ZM331.268 174.222L330.729 171.169L338.312 169.832L338.851 172.885L331.268 174.222ZM332.969 183.873L340.552 182.536L341.108 185.688L333.525 187.025L332.969 183.873ZM382.409 159.62L377.19 160.54L373.856 141.632L360.955 143.907L364.289 162.815L351.289 165.107L353.599 178.205L366.598 175.913L370.245 196.594C368.044 191.6 365.033 186.039 361.998 181.497L353.146 186.002L348.006 156.852L338.552 158.519C339.41 155.321 340.331 151.909 341.056 148.532L326.84 149.109C326.921 152.446 326.845 156.623 326.439 160.655L317.378 162.252L324.428 202.235L320.39 202.947L322.439 214.568L335.34 212.293C333.178 220.189 329.203 227.591 324.273 233.03C327.018 234.78 331.89 238.795 333.865 240.782C336.043 238.164 338.135 235.054 339.978 231.683C341.976 234.377 344.42 239.023 345.352 242.006C351.162 240.982 355.246 239.957 358.068 237.53C360.872 235.005 361.203 231.697 360.282 226.478L353.51 188.07C357.356 194.906 361.068 203.289 362.631 208.7L371.547 203.98L374.794 222.396C375.054 223.873 374.631 224.354 373.27 224.696C371.891 224.939 367.952 225.633 364.175 226.096C366.521 229.033 369.579 234.282 370.76 237.526C377.358 236.363 381.998 235.037 385.179 232.344C388.261 229.668 388.771 226.227 387.712 220.22L379.499 173.638L384.719 172.718L382.409 159.62Z" fill="#e7f5ff"/>
<path d="M483.222 187.437L485.48 200.24L450.125 206.474L447.868 193.671L483.222 187.437ZM438.403 225.803L453.077 223.215L452.452 219.67L487.806 213.436L488.362 216.588L503.725 213.879L496.38 172.221L430.989 183.751L438.403 225.803ZM447.212 160.582C451.135 156.337 454.808 151.83 458.232 147.063C463.642 150.679 468.815 153.524 473.704 155.911L447.212 160.582ZM453.844 126.208C445.934 143.545 429.058 158.401 412.367 168.554C417.065 171.584 422.156 176.271 425.249 179.991C428.939 177.309 432.595 174.431 436.198 171.257L437.015 175.885L486.255 167.203L485.109 160.704C490.091 162.465 494.806 163.868 499.585 165.056C500.756 160.179 503.954 154.132 507.007 150.141C494.217 148.436 480.552 144.651 465.342 135.554C466.164 133.886 466.987 132.218 467.81 130.549L453.844 126.208Z" fill="#e7f5ff"/>
<path d="M525.712 114.552C523.381 128.976 517.603 144.008 510.546 154.086C513.651 157.296 519.049 164.874 520.954 168.193C522.072 166.473 523.19 164.753 524.274 162.835L532.47 209.318L546.947 206.766L534.844 138.125C537.226 130.901 539.081 123.568 540.379 116.536L525.712 114.552ZM604.301 130.65L601.905 117.06L565.171 123.537C566.186 119.499 566.986 115.398 567.589 111.332L553.159 110.119C551.309 124.966 546.128 140.501 539.088 150.678C542.54 152.405 548.958 156.554 551.692 158.813C555.157 153.125 558.281 146.076 560.97 138.291L562.841 137.961L574.145 202.072L588.917 199.467L585.253 178.688L610.563 174.225L608.218 160.93L582.909 165.393L581.346 156.53L605.375 152.293L603.083 139.293L579.054 143.53L577.613 135.356L604.301 130.65Z" fill="#e7f5ff"/>
<path d="M707.213 147.334L709.592 160.826L694.229 163.535L691.85 150.043L707.213 147.334ZM683.33 182.922L697.216 180.474L696.434 176.042L711.797 173.333L712.578 177.765L727.252 175.178L719.681 132.24L675.759 139.984L683.33 182.922ZM687.278 118.356C689.509 114.307 691.491 109.997 693.125 105.444C696.218 109.164 699.456 112.553 702.937 115.595L687.278 118.356ZM656.497 147.645L652.163 148.409L646.225 114.729L650.558 113.965L656.497 147.645ZM683.784 85.8687C681.592 99.3541 675.247 113.47 665.705 123.276L661.347 98.5576L631.014 103.906L643.048 172.153L655.949 169.878L654.473 161.507L671.904 158.434L666.539 128.003C669.666 130.193 672.997 132.957 674.856 134.863C676.762 133.004 678.454 131.081 680.128 129.06L680.788 132.802L713.681 127.002L712.969 122.965C715.002 124.129 717.018 125.195 719.115 126.146C720.737 122.103 724.33 115.986 727.093 112.655C715.665 108.883 704.573 100.684 697.02 91.2522C697.304 89.9837 697.588 88.7151 697.756 87.3653L683.784 85.8687Z" fill="#e7f5ff"/>
<path d="M805.694 129.97L808.073 143.462L792.71 146.171L790.331 132.679L805.694 129.97ZM781.81 165.558L795.696 163.11L794.915 158.678L810.278 155.969L811.059 160.401L825.733 157.814L818.162 114.876L774.24 122.62L781.81 165.558ZM785.759 100.991C787.99 96.9426 789.972 92.633 791.606 88.0801C794.699 91.7995 797.937 95.1888 801.418 98.2306L785.759 100.991ZM754.977 130.281L750.644 131.045L744.706 97.3649L749.039 96.6009L754.977 130.281ZM782.265 68.5047C780.073 81.9901 773.728 96.1063 764.186 105.912L759.827 81.1935L729.495 86.5416L741.529 154.789L754.43 152.514L752.954 144.143L770.385 141.07L765.019 110.639C768.147 112.829 771.478 115.593 773.337 117.499C775.243 115.64 776.935 113.717 778.609 111.696L779.269 115.438L812.162 109.638L811.45 105.601C813.483 106.765 815.499 107.831 817.596 108.782C819.218 104.739 822.81 98.6218 825.574 95.2914C814.145 91.5185 803.053 83.32 795.501 73.8882C795.785 72.6196 796.069 71.351 796.237 70.0013L782.265 68.5047Z" fill="#e7f5ff"/>
<path d="M864.767 54.6687C861.939 61.6661 855.074 71.1016 848.486 76.934C851.174 79.5065 855.581 84.9234 857.73 87.8955C865.911 80.1574 874.202 68.4397 879.411 57.6716L864.767 54.6687ZM871.623 75.6978C867.642 85.9447 859.855 97.0658 852.624 104.433C855.317 107.614 860.304 115.163 861.879 118.337C863.895 115.951 866.056 113.235 868.102 110.437L874.908 149.041L888.893 146.576L879.273 92.0173C881.533 87.5572 883.578 83.0333 885.166 78.7931L871.623 75.6978ZM936.222 93.6535C933.905 97.21 930.249 101.815 927.01 105.331C924.797 102.573 922.846 99.566 921.056 96.3276L936.222 93.6535ZM901.287 81.5355L922.362 77.8196L923.335 83.3345L902.26 87.0505L901.287 81.5355ZM919.428 61.1763L920.348 66.3958L899.273 70.1117L898.353 64.8923L919.428 61.1763ZM936.813 93.5493L939.374 93.0979L931.16 46.5164L882.215 55.1463L894.509 124.871C895.36 129.696 893.158 133.334 891.055 135.228C893.54 137.227 897.467 142.221 899.007 145.199C901.272 143.073 905.131 140.768 923.142 132.921C922.094 129.857 920.873 124.081 920.259 120.026L908.858 124.473L904.413 99.2621L908.648 98.5154C917.473 117.471 928.616 131.144 946.388 136.337C947.779 132.131 951.105 125.655 953.753 122.244C946.703 120.847 940.592 117.862 935.408 113.801C939.174 110.395 943.572 105.964 947.413 101.835L936.813 93.5493Z" fill="#e7f5ff"/>
<path d="M977.656 67.7656C977.864 75.8524 977.359 83.3541 975.927 90.2068C973.564 88.8973 971.2 87.5877 968.854 86.3767C969.313 80.9141 969.603 75.075 969.778 69.1547L977.656 67.7656ZM981.285 53.2145L978.991 54.0251L970.029 55.6053C970.036 49.3084 969.961 43.1275 969.626 37.1955L955.173 38.7285C955.74 44.8227 956.098 51.4613 956.143 58.0536L947.969 59.4948L950.279 72.5928L955.991 71.5856C955.723 79.8578 955.154 87.5738 954.342 93.9111C959.747 96.9183 965.863 100.511 971.702 104.254C968.37 111.848 963.596 118.173 957.31 122.835C960.716 124.875 965.396 129.533 967.973 132.632C974.676 126.881 979.891 120.174 983.68 112.296C987.77 115.332 991.448 118.339 994.054 121.027L1001.24 107.068C998.088 104.171 993.669 100.99 988.641 97.8147C991.568 85.6211 992.057 71.1159 990.397 53.6387L981.285 53.2145ZM1044.78 63.7494L1026.17 67.0312L1025.09 60.9254C1030.9 52.9958 1035.63 43.531 1039.09 35.5084L1028.32 30.2991L1025.09 31.5788L989.05 37.9341L991.324 50.8351L1018.21 46.0947C1016.02 51.557 1013.07 57.2568 1009.85 61.4793L1011.3 69.6532L991.501 73.1434L993.897 86.7337L1013.69 83.2435L1018.07 108.061C1018.33 109.538 1017.81 110.036 1016.13 110.331C1014.56 110.609 1008.55 111.668 1004.08 112.253C1006.71 115.648 1009.82 121.192 1011.22 125.108C1019 123.736 1024.96 122.382 1029.22 119.497C1033.47 116.515 1034.22 112.726 1032.99 105.734L1028.56 80.6216L1047.18 77.3398L1044.78 63.7494Z" fill="#e7f5ff"/>
<path d="M1098.64 46.4335C1098.85 54.5204 1098.34 62.022 1096.91 68.8748C1094.55 67.5652 1092.19 66.2557 1089.84 65.0447C1090.3 59.5821 1090.59 53.7429 1090.76 47.8227L1098.64 46.4335ZM1102.27 31.8825L1099.98 32.6931L1091.01 34.2732C1091.02 27.9764 1090.95 21.7954 1090.61 15.8635L1076.16 17.3965C1076.73 23.4907 1077.08 30.1293 1077.13 36.7216L1068.95 38.1628L1071.26 51.2608L1076.98 50.2536C1076.71 58.5258 1076.14 66.2418 1075.33 72.579C1080.73 75.5863 1086.85 79.1788 1092.69 82.9218C1089.36 90.5157 1084.58 96.8408 1078.3 101.503C1081.7 103.543 1086.38 108.201 1088.96 111.3C1095.66 105.549 1100.88 98.8417 1104.67 90.964C1108.75 94.0001 1112.43 97.0071 1115.04 99.6954L1122.22 85.7357C1119.07 82.8388 1114.65 79.6579 1109.63 76.4827C1112.55 64.2891 1113.04 49.7839 1111.38 32.3067L1102.27 31.8825ZM1165.76 42.4174L1147.15 45.6992L1146.07 39.5934C1151.89 31.6638 1156.61 22.199 1160.07 14.1764L1149.31 8.96709L1146.08 10.2468L1110.03 16.6021L1112.31 29.5031L1139.19 24.7627C1137.01 30.225 1134.06 35.9247 1130.84 40.1472L1132.28 48.3212L1112.49 51.8114L1114.88 65.4017L1134.68 61.9115L1139.05 86.7287C1139.31 88.2059 1138.79 88.704 1137.12 88.9992C1135.54 89.277 1129.53 90.3362 1125.07 90.9207C1127.7 94.3157 1130.81 99.8599 1132.21 103.776C1139.99 102.404 1145.94 101.05 1150.21 98.1654C1154.45 95.1827 1155.21 91.3943 1153.98 84.4022L1149.55 59.2896L1168.16 56.0077L1165.76 42.4174Z" fill="#e7f5ff"/>
<path d="M1193.5 34.9892C1203.75 30.9473 1210.09 26.5805 1213.76 21.4659C1223.14 22.8576 1233.24 24.8344 1241.06 26.6024L1193.5 34.9892ZM1217.62 66.9867L1200.29 70.0427L1199.09 63.2475L1216.42 60.1915L1217.62 66.9867ZM1262.43 22.8344L1247.56 25.4564L1254.62 15.9861C1247.36 14.5252 1237.4 12.728 1227.6 11.3073L1253.8 6.68846L1251.61 -5.72012L1218.13 0.18367C1217.97 -2.42893 1217.7 -5.12265 1217.29 -7.99596L1202.52 -5.39136C1202.94 -2.41956 1203.31 0.256777 1203.45 2.77089L1171.74 8.36214L1173.93 20.7707L1200.32 16.1171C1196.6 20.9362 1188.93 24.6252 1174.32 28.7243C1176.59 30.6595 1179.74 34.1646 1181.68 37.0729L1171.93 38.792L1174.17 51.496L1238.28 40.192L1243.33 68.85C1243.58 70.2287 1242.96 70.7442 1241.1 71.1726C1240.02 71.3636 1236.37 72.006 1232.61 72.5674L1228.08 46.8639L1183.57 54.7124L1189.66 89.2792L1203.25 86.883L1202.21 80.9741L1229.3 76.199C1231.35 79.1884 1233.52 82.8672 1234.63 85.7174C1242.8 84.2762 1249.17 82.9506 1253.84 80.0954C1258.4 77.1591 1259.44 73.2201 1258.25 66.5234L1253.15 37.57L1264.67 35.5384L1262.43 22.8344Z" fill="#e7f5ff"/>
<path d="M1365.38 14.9391L1350.8 17.509L1355.31 10.8247C1350.21 7.25558 1339.91 2.37071 1333.15 -0.804764L1325.49 9.88771C1330.42 12.472 1336.71 15.9313 1341.74 19.1065L1305.4 25.5138L1307.99 40.1875L1355.75 31.7659C1350.89 41.0511 1344.96 51.7439 1339.73 60.6872L1356.01 64.9242C1364.11 49.7887 1373.43 31.7975 1380.08 17.1194L1367.72 13.8157L1365.38 14.9391ZM1328.42 -28.8081C1321.43 -11.4306 1305.82 3.70964 1289.95 13.9201C1294.85 16.9157 1300.37 21.7304 1303.46 25.4498C1315.62 16.0962 1326.97 4.44843 1335.74 -9.18085C1347.92 -0.565097 1362.66 6.99095 1375.5 11.3259C1377.35 6.8367 1381.3 -0.154675 1384.48 -3.9659C1370.41 -7.17141 1353.7 -13.8704 1342.45 -21.229C1342.96 -22.3353 1343.48 -23.4417 1344 -24.548L1328.42 -28.8081Z" fill="#e7f5ff"/>
<path d="M1481.68 -2.72356L1479.07 -17.4957L1442.73 -11.0883C1442.5 -12.9769 1442.19 -14.7495 1441.89 -16.4237L1440.26 -25.6809L1472.76 -31.411L1470.16 -46.1832L1391.67 -32.344L1394.27 -17.5719L1425.09 -23.0068L1426.69 -13.9466C1427 -12.1739 1427.22 -10.3839 1427.47 -8.39691L1393 -2.3195L1395.6 12.4527L1427.02 6.9135C1424.75 19.3967 1417.19 32.9161 1397.01 43.4793C1400.57 45.797 1406.16 51.0056 1408.56 54.2383C1428.27 43.3507 1437.44 29.7504 1441.18 16.3985C1451.96 29.7294 1465.4 38.0209 1484.32 40.4741C1485.77 36.0543 1489.01 29.0861 1491.8 25.3443C1472.37 23.9975 1458.26 15.926 1448.78 3.07607L1481.68 -2.72356Z" fill="#e7f5ff"/>
<path d="M1561.39 -20.8408L1559.71 -30.3934L1567.29 -31.7305C1567.67 -28.4459 1568.04 -25.1613 1568.09 -22.0216L1561.39 -20.8408ZM1573.05 -50.3131C1572.15 -47.9208 1571.04 -45.5922 1569.99 -43.478L1558.67 -41.4811C1559.7 -43.6938 1560.71 -46.005 1561.53 -48.2815L1573.05 -50.3131ZM1587.79 -25.4944L1581.09 -24.3136C1580.93 -27.5345 1580.67 -30.7379 1580.29 -34.0225L1586.1 -35.047L1587.79 -25.4944ZM1530.68 1.3297L1527.97 -14.0333L1533.78 -15.0578L1536.49 0.305222L1530.68 1.3297ZM1528.99 -42.2385L1531.59 -27.4664L1525.78 -26.4419L1523.17 -41.2141L1528.99 -42.2385ZM1593.09 9.21135C1590.93 9.59336 1590.58 9.34998 1590.02 6.19859L1586.46 -13.99L1603.11 -16.9245L1597.57 -48.3399L1585.26 -46.1694C1587.61 -51.2552 1589.86 -56.9318 1591.42 -62.4869L1580.31 -63.8789L1578.05 -62.8712L1565.05 -60.5792C1565.49 -62.6877 1565.93 -64.7962 1566.25 -66.9859L1551.77 -66.7679C1550.72 -58.3568 1547.83 -48.8107 1542.04 -40.1744L1539.06 -57.1131L1508.62 -51.7476L1521.91 23.5903L1534.22 21.4198L1532.92 14.0337L1551.04 10.8387L1543.52 -31.8035C1544.69 -30.8938 1545.89 -29.8857 1546.98 -28.8602L1550.71 -7.68683L1567.75 -10.6908C1566.2 0.651349 1560.51 10.9965 1545.2 19.7878C1548.71 21.81 1553 26.0279 1555.07 29.1158C1565.96 22.3224 1572.63 14.6478 1576.44 6.35881L1576.84 8.62386C1578.77 19.5552 1581.89 22.8634 1592.73 20.9534L1601.39 19.4253C1609.86 17.932 1612.43 13.5183 1611.2 -0.378952C1607.62 -0.559058 1601.84 -1.67214 1598.93 -3.19029C1600.3 6.31597 1600.08 7.97848 1598.02 8.34312L1593.09 9.21135Z" fill="#e7f5ff"/>
<path d="M1667.07 -10.6357L1661.53 -42.0511L1695.41 -48.0243L1692.86 -62.501L1658.98 -56.5278L1654.19 -83.7085L1638.72 -80.9823L1651.61 -7.9095L1617.04 -1.81471L1619.59 12.662L1710.49 -3.36507L1707.94 -17.8418L1667.07 -10.6357Z" fill="#e7f5ff"/>
<path d="M56.4328 423.836L54.1929 411.132L35.6785 414.397C35.2503 410.817 34.689 407.057 34.0929 403.101L20.1086 405.566C20.722 409.621 21.3819 413.364 21.7926 416.845L3.17976 420.127L5.41972 432.831L22.7524 429.775C22.5886 440.364 19.1118 448.288 7.88417 455.447C11.3885 457.469 16.1843 462.208 18.3851 465.476C27.6488 459.273 32.6954 452.189 35.0022 443.963C42.2947 448.465 49.4133 453.709 53.543 457.55L61.9442 447.032C56.3085 442.136 46.1546 435.803 36.8056 431.156C36.8927 429.922 36.8639 428.607 36.8351 427.292L56.4328 423.836ZM7.54625 468.504L-3.39311 406.461L55.4985 396.077L66.4379 458.12L7.54625 468.504ZM-18.8469 395.985L-2.87193 486.587L10.3245 484.261L9.59523 480.124L68.4868 469.741L69.2161 473.877L83.1019 471.429L67.127 380.826L-18.8469 395.985Z" fill="#e7f5ff"/>
<path d="M85.8145 381.999C89.9152 386.252 94.902 392.074 96.9927 395.869L109.512 387.975C106.993 384.053 101.763 378.578 97.5345 374.754L85.8145 381.999ZM127.423 390.503C127.117 387.613 126.648 384.954 126.196 382.393L123.661 368.015L109.086 370.585L111.604 384.864C112.055 387.425 112.524 390.084 112.848 393.073L83.4023 398.265L85.9548 412.742L113.628 407.862C113.185 423.781 108.357 441.895 91.3994 456.867C95.3441 458.507 101.762 462.655 104.699 465.488C124.501 447.07 128.942 424.455 128.597 405.223L154.399 400.674C158.056 426.024 158.924 437.853 156.913 440.847C155.858 442.353 154.845 442.938 152.974 443.268C150.216 443.754 144.8 444.71 138.902 445.242C142.407 448.99 145.621 455.125 146.68 459.406C152.606 458.463 158.631 457.502 162.431 456.02C166.741 454.549 169.667 452.713 172.072 447.923C175.108 442.107 173.755 427.521 168.373 390.086C168.142 388.198 167.407 383.453 167.407 383.453L127.423 390.503ZM153.213 426.776C150.277 422.217 144.068 415.797 139.191 411.174L128.051 418.825C132.898 423.859 138.783 430.742 141.424 435.354L153.213 426.776Z" fill="#e7f5ff"/>
<path d="M233.009 387.219L234.745 397.068L223.814 398.995L222.077 389.147L233.009 387.219ZM250.772 407.341L244.556 372.084L219.837 376.443L218.847 370.829C228.308 368.044 238.057 364.599 246.29 360.609L235.175 349.978C226.717 354.414 214.331 359.035 202.756 362.497L209.216 399.132C211.473 411.934 213.979 428.45 209.505 440.51C212.952 441.629 219.908 445.378 222.839 447.603C226.791 437.767 226.828 424.154 225.561 411.786L250.772 407.341ZM295.498 371.327L266.25 376.484L263.905 363.189C273.232 360.225 282.947 356.583 291.145 352.396L279.682 341.521C271.276 346.252 259.058 351.25 247.304 354.845L252.531 384.488C255.101 399.063 257.253 418.18 244.686 433.292C248.167 434.607 254.979 438.686 257.73 441.044C269.648 426.86 270.329 406.533 268.484 390.306L276.067 388.969L284.21 435.157L298.392 432.657L290.248 386.469L297.929 385.115L295.498 371.327Z" fill="#e7f5ff"/>
<path d="M359.036 360.226C354.97 354.444 347.464 346.426 340.652 340.62L329.54 349.586C336.108 355.739 343.87 364.626 347.344 370.512L359.036 360.226ZM331.469 392.198L322.127 339.216L306.37 341.994L316.285 398.227C317.292 403.938 313.201 409.534 310.432 412.256C313.311 414.185 318.356 419.185 320.209 422.21C322.724 418.618 327.237 414.269 352.462 393.777C350.707 390.736 347.84 384.844 346.387 380.632L331.469 392.198ZM404.202 404.455C398.839 398.801 388.789 391.332 380.083 385.15C383.718 369.481 383.246 350.677 380.237 327.853L364.752 329.872C370.707 370.556 368.154 396.392 341.679 413.245C345.548 415.609 352.522 421.183 354.914 423.808C364.154 416.898 370.672 408.945 375.14 399.73C382.247 405.483 389.308 411.549 393.182 416.248L404.202 404.455Z" fill="#e7f5ff"/>
<path d="M453.581 347.313L455.422 357.752C454.015 354.954 452.196 352.126 449.555 349.241C450.24 343.333 450.953 335.287 451.441 327.686C454.783 331.667 457.997 336.075 459.572 339.25L468.807 331.732C468.356 330.898 467.788 329.983 467.122 329.085L474.607 327.765C472.543 333.917 469.652 339.402 465.764 343.845C466.228 344.169 466.789 344.476 467.369 344.882L453.581 347.313ZM434.664 330.441L439.096 329.66C439.066 336.976 438.972 346.233 438.554 352.501C444.201 358.613 446.118 364.876 446.934 369.504C447.472 372.557 447.408 374.498 446.678 375.54C446.191 376.235 445.438 376.571 444.569 376.826C444.077 376.913 443.486 377.017 442.878 377.023L434.664 330.441ZM498.975 338.7L499.635 342.442L489.787 344.178L489.127 340.436L498.975 338.7ZM492.079 357.178L491.454 353.633L501.302 351.896L501.927 355.441L492.079 357.178ZM472.17 348.503C473.827 349.836 475.368 351.087 476.347 352.032C477.094 351.087 477.76 350.259 478.392 349.234L484.296 382.717L496.212 380.616L493.781 366.829L503.629 365.093L504.08 367.653C504.237 368.539 504.092 368.87 503.304 369.009C502.516 369.147 500.645 369.477 499.052 369.657C500.836 372.287 502.978 376.377 503.928 379.459C508.36 378.678 511.986 377.937 514.628 375.643C517.287 373.448 517.49 370.569 516.622 365.645L509.677 326.253L487.124 330.229C487.553 328.63 487.982 327.031 488.295 325.351L511.931 321.184L509.83 309.268L490.429 312.689C490.603 310.221 490.876 307.736 490.951 305.285L478.045 305.226C478.027 308.58 477.778 311.772 477.331 314.998L465.021 317.169L467.105 328.986C464.504 325.18 460.583 320.794 457.033 317.359L451.859 321.419L452.05 319.049L442.186 315.508L440.5 316.313L420.114 319.908L435.881 409.328L448.191 407.158L443.329 379.583C444.852 382.463 445.987 386.02 446.537 388.563C448.605 388.198 450.459 387.77 451.901 387.312C453.999 386.536 455.748 385.517 457.115 384.057C459.833 381.04 460.349 376.481 459.099 369.39C458.526 366.14 457.704 362.63 456.042 358.963L461.36 358.025L465.44 381.168C462.109 383.583 458.76 387.626 455.811 392.208L466.422 403.436C467.784 397.915 470.067 390.709 472.332 390.31C474.007 390.015 477.447 392.251 481.293 393.909C487.317 396.401 493.522 397.033 502.286 395.488C508.688 394.359 517.481 392.402 522.533 391.105C522.041 387.74 522.569 380.945 523.242 377.272C516.539 379.571 506.303 381.985 500.197 383.062C492.417 384.433 486.039 384.542 480.542 382.161C479.569 381.825 478.677 381.373 477.901 381.002L472.17 348.503Z" fill="#e7f5ff"/>
<path d="M574.542 304.255C574.426 305.9 574.165 307.876 573.771 309.671L555.158 312.953C554.469 311.348 553.45 309.599 552.483 308.145L574.542 304.255ZM607.55 303.715L588.445 307.084L590.067 303.041L581.141 303.092L601.329 299.532L599.402 288.601L569.267 293.914C568.311 291.95 567.159 290.021 566.058 288.387L552.409 293.332C552.994 294.346 553.597 295.458 554.101 296.588L523.571 301.971L525.499 312.902L546.771 309.152L539.153 312.018C539.738 313.032 540.357 314.243 540.977 315.453L521.478 318.892L523.405 329.823L609.477 314.647L607.55 303.715ZM542.102 388.061C546.47 382.315 549.339 374.397 551.344 367.341L538.508 364.223C536.908 370.699 533.327 378.032 529.051 383.153L542.102 388.061ZM551.77 347.872L588.996 341.308L589.482 344.066L552.256 350.629L551.77 347.872ZM549.86 337.039L587.086 330.475L587.572 333.233L550.346 339.796L549.86 337.039ZM572.238 372.39C568.004 373.137 567.164 372.98 566.678 370.223L565.462 363.329C570.588 364.761 576.033 366.847 579.092 368.643L586.213 358.35C583.983 357.22 580.831 356.05 577.518 355.111L605.191 350.232L599.739 319.309L534.84 330.751L540.292 361.674L565.7 357.195L562.357 361.846L551.229 363.808L552.826 372.868C554.719 383.602 558.577 386.476 572.463 384.028L586.939 381.475C596.886 379.722 600.026 376.223 599.541 364.835C595.776 364.788 589.832 363.906 586.745 362.521C587.329 368.714 586.912 369.803 583.564 370.393L572.238 372.39ZM595.174 358.496C600.613 363.427 606.596 370.292 609.057 375.037L620.493 367.334C617.604 362.462 611.296 356.06 605.828 351.541L595.174 358.496Z" fill="#e7f5ff"/>
<path d="M683.718 347.251L664.711 350.602L662.61 338.686L681.617 335.335L683.718 347.251ZM670.566 287.629C676.249 285.307 681.567 282.643 686.242 279.788L673.945 271.091C665.006 276.83 650.164 282.493 636.046 286.506C638.16 289.281 640.917 293.974 641.982 297.137C646.837 295.874 651.952 294.363 657.033 292.655L658.509 301.026L639.6 304.36L641.979 317.852L660.888 314.518L662.798 325.351L646.942 328.146L654.131 368.918L667.524 366.556L666.986 363.503L685.993 360.152L686.462 362.811L700.544 360.328L693.425 319.951L676.782 322.885L674.872 312.052L693.879 308.701L691.5 295.209L672.493 298.56L670.566 287.629ZM705.933 275.707L692.047 278.155L701.979 334.486L715.865 332.038L705.933 275.707ZM710.841 266.109L723.985 340.659C724.315 342.53 723.631 343.26 721.76 343.59C719.594 343.972 713.094 345.118 706.838 345.916C709.618 349.589 713.063 355.886 714.384 359.918C723.444 358.321 730.448 356.578 734.677 353.497C738.79 350.335 739.59 346.234 738.184 338.257L725.022 263.608L710.841 266.109Z" fill="#e7f5ff"/>
<path d="M782.122 304.109C778.228 313.122 773.175 321.324 767.48 327.608C768.513 313.311 766.876 298.267 765.012 287.121C770.503 292.347 776.509 298.193 782.122 304.109ZM745.054 260.889L749.794 287.774C752.625 303.826 755.969 327.404 747.961 344.758C751.408 345.876 758.729 349.967 761.695 352.389C765.096 345.189 766.824 336.558 767.48 327.608C771.083 329.613 776.597 333.819 779.551 336.751C784.557 330.588 788.781 323.446 792.339 315.406C796.81 320.609 800.522 325.539 803.192 329.739L814.889 320.061C810.922 314.262 804.841 307.414 798.018 300.392C800.666 291.802 802.718 282.707 804.029 273.439L790.897 272.099C790.195 277.909 788.92 283.922 787.216 289.807C782.82 285.606 778.36 281.62 774.265 277.976L764.7 285.349L762.355 272.054L803.225 264.848C812.109 316.388 817.059 341.003 833.8 338.051C841.187 336.748 842.821 330.469 841.763 317.557C838.751 315.448 834.303 310.952 831.395 307.707C832.518 315.227 833.079 322.439 832.192 322.595C827.367 323.446 823.431 299.973 815.172 248.525L745.054 260.889Z" fill="#e7f5ff"/>
<path d="M949.473 244.545L946.92 230.068L858.189 245.713L860.742 260.19L895.21 254.112L907.833 325.708L923.295 322.982L915.498 278.764C925.728 282.647 937.151 287.538 943.14 291.559L951.548 276.469C943.068 271.567 926.229 265.905 915.182 262.573L913.224 265.863L910.671 251.386L949.473 244.545Z" fill="#e7f5ff"/>
<path d="M1034.42 248.352L1036.18 258.298C1031.79 256.432 1025.25 253.929 1020.78 252.179L1014.96 260.618L1013.45 252.05L1034.42 248.352ZM1017.95 277.557L1015.22 262.095C1020.62 264.494 1027.88 267.681 1031.4 269.802L1036.73 261.45L1039.69 278.191C1035.21 275.833 1027.94 272.646 1023.09 270.455L1017.95 277.557ZM984.073 284.138L981.313 268.48C986.398 270.832 992.938 273.944 996.245 276.001L1001.73 267.927L1004.68 284.668C1000.42 282.374 993.957 279.146 989.514 276.985L984.073 284.138ZM999.365 254.533L1001.15 264.677C996.943 262.678 990.803 260.105 986.545 258.418L980.913 266.215L979.472 258.041L999.365 254.533ZM1048.26 224.893L1045.78 210.81L955.766 226.681L958.249 240.763L995.771 234.148L997.021 241.238L963.439 247.159L975.229 314.028L988.918 311.614L984.646 287.388C989.721 290.25 996.017 293.71 999.295 296.178L1005.2 287.623L1008.59 306.827L1022.67 304.344L1018.55 281.004C1023.91 283.715 1030.5 287.123 1033.95 289.458L1040.05 280.259L1041.34 287.547C1041.6 289.024 1041.07 289.522 1039.52 289.899C1038.04 290.159 1032.43 291.149 1028.35 291.664C1030.8 294.584 1033.84 299.734 1035.15 303.158C1042.54 301.856 1048.12 300.669 1051.91 297.97C1055.78 295.155 1056.56 291.564 1055.45 285.261L1046.16 232.574L1011.1 238.755L1009.85 231.665L1048.26 224.893Z" fill="#e7f5ff"/>
<path d="M1126.04 279.313C1135.6 277.629 1143.13 272.544 1148.06 264.261L1136.86 254.863C1134.08 259.213 1129.87 263.001 1124.06 264.025C1113.72 265.849 1105.53 258.56 1102.96 243.985C1100.44 229.705 1106.73 219.864 1116.18 218.197C1121.4 217.277 1125.66 218.963 1129.89 221.669L1137.17 208.81C1131.25 204.575 1122.78 201.497 1113.23 203.182C1094.62 206.463 1080.73 223.33 1085.04 247.753C1089.42 272.571 1107.43 282.595 1126.04 279.313Z" fill="#e7f5ff"/>
<path d="M1160.47 271.822L1178.09 268.714L1172.78 238.579L1196.91 234.325L1202.22 264.46L1219.65 261.387L1206.73 188.117L1189.3 191.19L1194.22 219.06L1170.09 223.314L1165.17 195.444L1147.55 198.553L1160.47 271.822Z" fill="#e7f5ff"/>
<path d="M1236.73 258.375L1254.36 255.267L1241.44 181.997L1223.81 185.106L1236.73 258.375Z" fill="#e7f5ff"/>
<path d="M1271.16 252.305L1287.9 249.353L1283.61 225.028C1282.05 216.165 1278.8 206.38 1276.57 198.345L1277.07 198.258L1287.08 213.043L1311.44 245.203L1329.36 242.043L1316.44 168.773L1299.7 171.725L1303.97 195.951C1305.52 204.716 1308.76 215.01 1311.11 222.616L1310.62 222.703L1300.57 207.722L1276.16 175.875L1258.24 179.035L1271.16 252.305Z" fill="#e7f5ff"/>
<path d="M1376.84 235.092C1396.84 231.567 1407.89 214.793 1403.65 190.764C1399.43 166.833 1383.43 155.54 1363.44 159.065C1343.45 162.59 1332.25 178.577 1336.49 202.606C1340.73 226.635 1356.85 238.617 1376.84 235.092ZM1374.17 219.926C1364.52 221.628 1357.03 213.708 1354.51 199.428C1352.01 185.247 1356.44 175.834 1366.1 174.133C1375.75 172.431 1383.23 179.743 1385.73 193.924C1388.25 208.204 1383.82 218.224 1374.17 219.926Z" fill="#e7f5ff"/>
<path d="M1423.79 225.394L1441.41 222.286L1428.5 149.016L1410.87 152.124L1423.79 225.394Z" fill="#e7f5ff"/>
<path d="M1481.21 216.691C1498.93 213.565 1507.28 201.025 1505.13 188.813C1503.31 178.473 1496.81 173.322 1487.11 171.276L1477.31 169.247C1470.36 167.832 1465.45 167.073 1464.74 163.035C1464.05 159.096 1467.01 156.339 1472.43 155.384C1478.14 154.377 1483.02 155.548 1488.49 158.341L1495.31 145.765C1487.78 140.493 1478.24 138.823 1469.77 140.316C1454.21 143.06 1444.92 154.853 1447.09 167.163C1448.97 177.799 1457.28 182.932 1465.5 184.631L1475.55 186.921C1482.32 188.468 1486.61 189.135 1487.35 193.37C1488.05 197.309 1485.43 200.309 1478.93 201.455C1473.12 202.48 1465.78 200.625 1459.78 197.114L1451.97 210.981C1460.79 216.636 1471.66 218.375 1481.21 216.691Z" fill="#e7f5ff"/>
<path d="M1543.62 204.265L1559.37 201.487L1554.95 176.374C1553.66 169.087 1550.36 158.399 1548.2 151.366L1548.6 151.296L1557.6 167.784L1572.26 192.817L1581.92 191.115L1587.04 162.592L1590.06 143.986L1590.45 143.917C1590.83 151.262 1591.38 162.436 1592.66 169.724L1597.09 194.837L1613.15 192.006L1600.23 118.736L1581.12 122.105L1575.47 155.697C1574.84 160.175 1574.47 165.012 1573.79 169.802L1573.3 169.889C1571.12 165.602 1569.12 161.182 1566.9 157.208L1549.71 127.644L1530.7 130.996L1543.62 204.265Z" fill="#e7f5ff"/>
<path d="M1629.98 189.038L1677.55 180.651L1674.94 165.879L1645 171.158L1642.26 155.598L1666.78 151.274L1664.18 136.502L1639.66 140.825L1637.26 127.235L1666.11 122.147L1663.54 107.572L1617.06 115.768L1629.98 189.038Z" fill="#e7f5ff"/>
<path d="M1699.17 115.608L1707.05 114.219C1715.42 112.743 1720.25 114.227 1721.47 121.121C1722.68 128.014 1718.89 132.439 1710.52 133.915L1702.64 135.305L1699.17 115.608ZM1751.3 167.647L1729.83 141.478C1736.79 136.596 1740.59 128.816 1738.7 118.082C1735.57 100.355 1721.64 97.3294 1705.98 100.09L1679.09 104.831L1692.01 178.1L1709.64 174.992L1705.09 149.19L1713.56 147.697L1731.6 171.12L1751.3 167.647Z" fill="#e7f5ff"/>
<path d="M1793 161.716C1802.55 160.031 1810.09 154.946 1815.02 146.663L1803.82 137.266C1801.03 141.616 1796.83 145.404 1791.02 146.428C1780.68 148.251 1772.49 140.963 1769.92 126.387C1767.4 112.108 1773.69 102.267 1783.14 100.6C1788.36 99.6794 1792.62 101.366 1796.85 104.072L1804.13 91.2126C1798.2 86.9772 1789.74 83.8999 1780.19 85.5842C1761.57 88.866 1747.69 105.733 1752 130.156C1756.37 154.973 1774.39 164.997 1793 161.716Z" fill="#e7f5ff"/>
<path d="M1827.42 154.225L1845.05 151.117L1832.13 77.8469L1814.5 80.9551L1827.42 154.225Z" fill="#e7f5ff"/>
<path d="M1884.36 144.186L1912.03 139.307C1927.98 136.494 1939.51 127.557 1936.87 112.588C1935.15 102.839 1928.56 98.3135 1920.83 97.6462L1920.76 97.2522C1926.27 93.9453 1928.66 86.2122 1927.52 79.7125C1925.04 65.6297 1912.21 63.7278 1897.04 66.4019L1871.44 70.9165L1884.36 144.186ZM1894.19 96.8602L1891.43 81.2018L1898.72 79.9168C1906.1 78.6145 1909.93 80.1734 1910.85 85.3928C1911.74 90.4154 1908.96 94.2556 1901.48 95.5753L1894.19 96.8602ZM1899.61 127.586L1896.48 109.86L1905.25 108.314C1913.81 106.804 1918.47 108.421 1919.52 114.428C1920.64 120.731 1916.84 124.548 1908.37 126.041L1899.61 127.586Z" fill="#e7f5ff"/>
<path d="M3.40999 658.61L20.1517 655.658L15.8628 631.333C14.3 622.47 11.0517 612.685 8.82262 604.65L9.31502 604.563L19.3345 619.348L43.6887 651.508L61.6122 648.348L48.6933 575.078L31.9516 578.03L36.2231 602.256C37.7685 611.021 41.0052 621.315 43.3618 628.922L42.8694 629.008L32.8152 614.027L8.41463 582.18L-9.5089 585.34L3.40999 658.61Z" fill="#e7f5ff"/>
<path d="M120.7 616.808C117.913 621.158 113.707 624.946 107.897 625.971C97.5565 627.794 89.3664 620.505 86.7966 605.93C84.2788 591.65 90.5655 581.809 100.02 580.142C105.239 579.222 109.497 580.909 113.731 583.614L121.008 570.755C115.083 566.52 106.62 563.443 97.0675 565.127C78.4546 568.409 64.5725 585.275 68.8787 609.699C72.8204 632.054 87.8455 642.402 104.396 641.819L101.272 652.321C108.438 652.073 110.39 653.354 110.754 655.422C111.327 658.672 108.778 660.34 100.199 662.36L102.712 669.127C116.905 666.117 124.65 661.095 123.261 653.217C122.428 648.49 119.057 646.647 113.102 646.275L114.655 640.112C121.949 637.709 127.823 633.018 131.902 626.206L120.7 616.808Z" fill="#e7f5ff"/>
<path d="M155.187 600.472L155.669 593.99C156.255 586.372 156.714 577.457 157.132 569.463L157.526 569.394C160.815 576.531 164.232 584.966 167.486 591.906L170.156 597.833L155.187 600.472ZM183.105 626.926L201.619 623.662L165.951 554.403L144.876 558.119L135.046 635.4L152.969 632.24L154.235 614.653L175.901 610.833L183.105 626.926Z" fill="#e7f5ff"/>
<path d="M209.316 622.305L226.944 619.196L214.025 545.927L196.397 549.035L209.316 622.305Z" fill="#e7f5ff"/>
<path d="M266.738 613.602C284.464 610.476 292.814 597.936 290.661 585.724C288.837 575.384 282.344 570.233 272.642 568.187L262.841 566.158C255.889 564.743 250.983 563.984 250.271 559.946C249.576 556.007 252.543 553.25 257.959 552.295C263.671 551.288 268.548 552.458 274.016 555.251L280.837 542.676C273.307 537.404 263.772 535.734 255.302 537.227C239.743 539.971 230.449 551.763 232.62 564.074C234.495 574.71 242.813 579.843 251.032 581.542L261.083 583.831C267.854 585.379 272.135 586.046 272.882 590.281C273.576 594.22 270.958 597.22 264.458 598.366C258.647 599.391 251.314 597.536 245.313 594.024L237.502 607.891C246.318 613.546 257.185 615.286 266.738 613.602Z" fill="#e7f5ff"/>
<path d="M360.412 597.085C369.964 595.401 377.496 590.316 382.432 582.033L371.231 572.635C368.444 576.985 364.237 580.773 358.427 581.797C348.087 583.621 339.896 576.332 337.327 561.757C334.809 547.477 341.096 537.636 350.55 535.969C355.769 535.049 360.027 536.735 364.261 539.441L371.539 526.582C365.613 522.347 357.15 519.269 347.598 520.954C328.985 524.236 315.103 541.102 319.409 565.526C323.785 590.343 341.799 600.367 360.412 597.085Z" fill="#e7f5ff"/>
<path d="M425.31 585.642C445.302 582.117 456.357 565.343 452.12 541.314C447.9 517.383 431.896 506.09 411.905 509.615C391.913 513.14 380.719 529.127 384.956 553.156C389.193 577.185 405.318 589.167 425.31 585.642ZM422.636 570.476C412.985 572.178 405.496 564.258 402.978 549.978C400.477 535.797 404.91 526.384 414.562 524.683C424.213 522.981 431.696 530.293 434.196 544.474C436.714 558.754 432.287 568.775 422.636 570.476Z" fill="#e7f5ff"/>
<path d="M472.252 575.944L488.009 573.166L483.581 548.053C482.296 540.766 478.99 530.077 476.836 523.044L477.23 522.975L486.23 539.463L500.899 564.496L510.551 562.794L515.676 534.271L518.691 515.665L519.085 515.595C519.466 522.941 520.015 534.115 521.299 541.403L525.727 566.515L541.78 563.685L528.861 490.415L509.756 493.784L504.103 527.376C503.471 531.853 503.105 536.69 502.426 541.481L501.934 541.568C499.756 537.281 497.759 532.861 495.535 528.886L478.34 499.323L459.333 502.674L472.252 575.944Z" fill="#e7f5ff"/>
<path d="M558.615 560.716L576.243 557.608L571.954 533.284L580.522 531.773C595.984 529.047 608.121 518.986 605.048 501.555C601.853 483.435 587.551 480.067 571.4 482.915L545.696 487.447L558.615 560.716ZM569.506 519.398L565.773 498.224L572.962 496.957C581.431 495.463 586.61 497.19 587.912 504.577C589.18 511.766 585.756 516.533 577.188 518.043L569.506 519.398Z" fill="#e7f5ff"/>
<path d="M633.382 486.303L641.261 484.914C649.632 483.438 654.463 484.922 655.678 491.816C656.894 498.709 653.104 503.135 644.734 504.611L636.855 506L633.382 486.303ZM685.51 538.343L664.04 512.173C670.998 507.291 674.805 499.512 672.912 488.777C669.787 471.051 655.85 468.025 640.191 470.785L613.306 475.526L626.225 548.796L643.853 545.688L639.303 519.885L647.773 518.392L665.814 541.815L685.51 538.343Z" fill="#e7f5ff"/>
<path d="M695.95 536.502L743.516 528.115L740.912 513.343L710.973 518.621L708.23 503.062L732.752 498.738L730.147 483.966L705.625 488.289L703.229 474.699L732.084 469.611L729.514 455.036L683.031 463.232L695.95 536.502Z" fill="#e7f5ff"/>
<path d="M757.981 525.564L774.723 522.613L770.434 498.288C768.871 489.424 765.623 479.64 763.394 471.605L763.886 471.518L773.906 486.303L798.26 518.463L816.184 515.302L803.265 442.032L786.523 444.984L790.794 469.211C792.34 477.975 795.577 488.27 797.933 495.876L797.441 495.963L787.387 480.981L762.986 449.134L745.063 452.295L757.981 525.564Z" fill="#e7f5ff"/>
<path d="M833.189 512.304L855.248 508.414C876.619 504.646 889.359 490.52 884.862 465.013C880.364 439.507 863.7 431.377 841.345 435.318L820.27 439.034L833.189 512.304ZM848.316 495.015L840.363 449.91L842.727 449.494C854.545 447.41 863.766 450.76 866.84 468.191C869.913 485.622 862.497 492.514 850.68 494.598L848.316 495.015Z" fill="#e7f5ff"/>
<path d="M912.091 437.162L919.969 435.773C928.34 434.297 933.171 435.78 934.387 442.674C935.602 449.568 931.813 453.993 923.442 455.469L915.564 456.858L912.091 437.162ZM964.219 489.201L942.749 463.031C949.707 458.149 953.514 450.37 951.621 439.635C948.495 421.909 934.558 418.883 918.9 421.644L892.014 426.384L904.933 499.654L922.561 496.546L918.012 470.744L926.481 469.25L944.523 492.674L964.219 489.201Z" fill="#e7f5ff"/>
<path d="M974.659 487.36L1022.22 478.973L1019.62 464.201L989.682 469.48L986.939 453.92L1011.46 449.596L1008.86 434.824L984.334 439.148L981.938 425.557L1010.79 420.47L1008.22 405.895L961.74 414.09L974.659 487.36Z" fill="#e7f5ff"/>
<path d="M1059.19 472.455L1075.94 469.503L1071.65 445.178C1070.08 436.315 1066.84 426.53 1064.61 418.495L1065.1 418.408L1075.12 433.193L1099.47 465.353L1117.4 462.193L1104.48 388.923L1087.74 391.875L1092.01 416.101C1093.55 424.866 1096.79 435.16 1099.15 442.767L1098.65 442.853L1088.6 427.872L1064.2 396.025L1046.28 399.185L1059.19 472.455Z" fill="#e7f5ff"/>
<path d="M1163.99 455.399C1183.49 451.96 1191.38 439.096 1187.02 414.377L1180.18 375.576L1163.24 378.562L1170.41 419.235C1172.86 433.121 1169.29 438.826 1161.32 440.233C1153.24 441.656 1148.24 437.462 1145.79 423.576L1138.62 382.903L1121.09 385.994L1127.93 424.796C1132.29 449.514 1144.39 458.854 1163.99 455.399Z" fill="#e7f5ff"/>
<path d="M1209.51 445.951L1227.14 442.843L1214.22 369.573L1196.59 372.681L1209.51 445.951Z" fill="#e7f5ff"/>
<path d="M1258.12 437.38L1275.75 434.272L1265.4 375.577L1285.3 372.069L1282.73 357.494L1225.41 367.6L1227.98 382.175L1247.77 378.685L1258.12 437.38Z" fill="#e7f5ff"/>
<path d="M1346.92 423.145C1363.36 420.246 1368.86 407.091 1366.33 392.713L1357.78 344.26L1340.16 347.368L1348.46 394.442C1350.14 403.995 1347.59 407.389 1341.88 408.396C1338.33 409.021 1334.19 407.416 1330.75 402.845L1320.31 413.925C1327.23 422.048 1335.49 425.16 1346.92 423.145Z" fill="#e7f5ff"/>
<path d="M1417.62 410.679C1437.61 407.154 1448.67 390.38 1444.43 366.35C1440.21 342.42 1424.21 331.127 1404.22 334.652C1384.22 338.177 1373.03 354.163 1377.27 378.193C1381.5 402.222 1397.63 414.204 1417.62 410.679ZM1414.95 395.513C1405.3 397.215 1397.81 389.295 1395.29 375.015C1392.79 360.834 1397.22 351.421 1406.87 349.719C1416.52 348.018 1424.01 355.329 1426.51 369.511C1429.02 383.79 1424.6 393.811 1414.95 395.513Z" fill="#e7f5ff"/>
<path d="M1494.15 397.185C1513.65 393.747 1521.54 380.882 1517.18 356.163L1510.34 317.362L1493.4 320.349L1500.57 361.021C1503.02 374.907 1499.46 380.612 1491.48 382.019C1483.4 383.443 1478.4 379.248 1475.95 365.362L1468.78 324.69L1451.25 327.78L1458.09 366.582C1462.45 391.301 1474.56 400.64 1494.15 397.185Z" fill="#e7f5ff"/>
<path d="M1546.83 325.245L1554.71 323.856C1563.08 322.38 1567.91 323.864 1569.13 330.757C1570.34 337.651 1566.55 342.076 1558.18 343.552L1550.3 344.941L1546.83 325.245ZM1598.96 377.284L1577.49 351.115C1584.45 346.232 1588.25 338.453 1586.36 327.719C1583.24 309.992 1569.3 306.966 1553.64 309.727L1526.75 314.467L1539.67 387.737L1557.3 384.629L1552.75 358.827L1561.22 357.334L1579.26 380.757L1598.96 377.284Z" fill="#e7f5ff"/>
<path d="M1663.17 367.384C1672.72 365.7 1680.25 360.615 1685.19 352.332L1673.99 342.934C1671.2 347.284 1666.99 351.072 1661.18 352.097C1650.84 353.92 1642.65 346.631 1640.08 332.056C1637.56 317.777 1643.85 307.935 1653.31 306.268C1658.53 305.348 1662.78 307.035 1667.02 309.74L1674.29 296.881C1668.37 292.646 1659.91 289.569 1650.35 291.253C1631.74 294.535 1617.86 311.401 1622.16 335.825C1626.54 360.642 1644.55 370.666 1663.17 367.384Z" fill="#e7f5ff"/>
<path d="M1697.59 359.894L1745.16 351.507L1742.55 336.735L1712.61 342.013L1709.87 326.453L1734.39 322.13L1731.79 307.358L1707.26 311.681L1704.87 298.091L1733.72 293.003L1731.15 278.428L1684.67 286.624L1697.59 359.894Z" fill="#e7f5ff"/>
<path d="M1790.89 344.865C1800.44 343.181 1807.97 338.096 1812.91 329.813L1801.7 320.415C1798.92 324.765 1794.71 328.553 1788.9 329.578C1778.56 331.401 1770.37 324.112 1767.8 309.537C1765.28 295.257 1771.57 285.416 1781.02 283.749C1786.24 282.829 1790.5 284.515 1794.73 287.221L1802.01 274.362C1796.09 270.127 1787.62 267.05 1778.07 268.734C1759.46 272.016 1745.58 288.882 1749.88 313.306C1754.26 338.123 1772.27 348.147 1790.89 344.865Z" fill="#e7f5ff"/>
<path d="M1825.31 337.375L1842.93 334.266L1830.02 260.997L1812.39 264.105L1825.31 337.375Z" fill="#e7f5ff"/>
<path d="M1882.24 327.336L1904.3 323.447C1925.67 319.679 1938.41 305.552 1933.91 280.045C1929.42 254.539 1912.75 246.409 1890.4 250.35L1869.32 254.066L1882.24 327.336ZM1897.37 310.047L1889.42 264.942L1891.78 264.526C1903.6 262.442 1912.82 265.792 1915.89 283.223C1918.97 300.654 1911.55 307.546 1899.73 309.63L1897.37 310.047Z" fill="#e7f5ff"/>
<path d="M-34.1944 848.017L-17.4527 845.065L-21.7416 820.74C-23.3044 811.877 -26.5527 802.092 -28.7818 794.057L-28.2894 793.97L-18.2699 808.755L6.08427 840.915L24.0078 837.755L11.0889 764.485L-5.65282 767.437L-1.38124 791.663C0.164161 800.428 3.40083 810.722 5.7574 818.328L5.265 818.415L-4.78917 803.433L-29.1897 771.587L-47.1133 774.747L-34.1944 848.017Z" fill="#e7f5ff"/>
<path d="M55.1939 832.256L72.822 829.148L62.473 770.453L82.3662 766.945L79.7963 752.37L22.4804 762.476L25.0503 777.051L44.845 773.561L55.1939 832.256Z" fill="#e7f5ff"/>
<path d="M137.394 786.386L137.876 779.904C138.462 772.286 138.921 763.371 139.339 755.377L139.733 755.307C143.022 762.445 146.439 770.88 149.694 777.82L152.363 783.746L137.394 786.386ZM165.312 812.84L183.826 809.575L148.158 740.317L127.083 744.033L117.253 821.314L135.177 818.153L136.442 800.566L158.108 796.746L165.312 812.84Z" fill="#e7f5ff"/>
<path d="M191.523 808.218L237.612 800.092L235.008 785.32L206.547 790.338L196.232 731.84L178.604 734.949L191.523 808.218Z" fill="#e7f5ff"/>
<path d="M280.761 793.906C300.753 790.381 311.808 773.606 307.571 749.577C303.352 725.646 287.348 714.353 267.356 717.878C247.365 721.403 236.171 737.39 240.407 761.419C244.644 785.449 260.77 797.43 280.761 793.906ZM278.087 778.74C268.436 780.441 260.947 772.521 258.429 758.242C255.929 744.06 260.362 734.648 270.013 732.946C279.664 731.244 287.147 738.556 289.648 752.737C292.166 767.017 287.738 777.038 278.087 778.74Z" fill="#e7f5ff"/>
<path d="M334.861 721.715L342.74 720.326C351.111 718.85 355.942 720.334 357.157 727.227C358.373 734.121 354.583 738.546 346.213 740.022L338.334 741.411L334.861 721.715ZM386.989 773.754L365.519 747.585C372.477 742.702 376.284 734.923 374.391 724.188C371.266 706.462 357.329 703.436 341.67 706.197L314.785 710.937L327.704 784.207L345.332 781.099L340.782 755.297L349.252 753.804L367.293 777.227L386.989 773.754Z" fill="#e7f5ff"/>
<path d="M420.421 769.281C438.148 766.155 446.497 753.615 444.344 741.403C442.521 731.063 436.028 725.912 426.325 723.866L416.524 721.837C409.573 720.422 404.666 719.663 403.954 715.625C403.26 711.686 406.226 708.929 411.642 707.974C417.354 706.967 422.232 708.138 427.7 710.931L434.52 698.355C426.99 693.083 417.455 691.413 408.986 692.906C393.426 695.65 384.132 707.443 386.303 719.753C388.178 730.389 396.496 735.522 404.716 737.221L414.766 739.511C421.537 741.058 425.818 741.725 426.565 745.96C427.26 749.899 424.641 752.899 418.141 754.045C412.331 755.07 404.997 753.215 398.996 749.704L391.185 763.571C400.001 769.226 410.868 770.965 420.421 769.281Z" fill="#e7f5ff"/>
<path d="M489.988 694.363L497.866 692.974C506.237 691.498 511.068 692.982 512.284 699.875C513.499 706.769 509.71 711.194 501.339 712.67L493.461 714.059L489.988 694.363ZM542.116 746.402L520.646 720.233C527.603 715.35 531.411 707.571 529.518 696.837C526.392 679.11 512.455 676.084 496.797 678.845L469.911 683.586L482.83 756.855L500.458 753.747L495.909 727.945L504.378 726.452L522.42 749.875L542.116 746.402Z" fill="#e7f5ff"/>
<path d="M563.439 711.266L563.921 704.784C564.507 697.166 564.966 688.251 565.385 680.257L565.779 680.188C569.068 687.325 572.484 695.76 575.739 702.7L578.409 708.626L563.439 711.266ZM591.357 737.72L609.871 734.456L574.204 665.197L553.129 668.913L543.298 746.194L561.222 743.033L562.487 725.447L584.153 721.626L591.357 737.72Z" fill="#e7f5ff"/>
<path d="M630.174 730.876L651.249 727.16L660.39 650.001L642.466 653.161L640.08 688.005C639.401 696.248 639.163 704.108 638.501 712.45L638.008 712.537C634.435 704.942 631.72 697.602 628.164 690.105L613.907 658.196L595.294 661.478L630.174 730.876Z" fill="#e7f5ff"/>
<path d="M680.85 721.941L698.478 718.833L685.559 645.563L667.931 648.671L680.85 721.941Z" fill="#e7f5ff"/>
<path d="M745.757 711.918C765.748 708.393 776.803 691.619 772.567 667.589C768.347 643.658 752.343 632.366 732.352 635.891C712.36 639.416 701.166 655.402 705.403 679.432C709.639 703.461 725.765 715.443 745.757 711.918ZM743.082 696.752C733.431 698.454 725.942 690.534 723.425 676.254C720.924 662.073 725.357 652.66 735.008 650.958C744.659 649.257 752.143 656.568 754.643 670.75C757.161 685.029 752.734 695.05 743.082 696.752Z" fill="#e7f5ff"/>
<path d="M792.699 702.22L838.788 694.093L836.183 679.321L807.722 684.339L797.408 625.842L779.78 628.95L792.699 702.22Z" fill="#e7f5ff"/>
<path d="M851.461 691.859L869.089 688.751L856.17 615.481L838.542 618.589L851.461 691.859Z" fill="#e7f5ff"/>
<path d="M908.883 683.156C926.609 680.03 934.958 667.49 932.805 655.278C930.982 644.938 924.489 639.787 914.786 637.741L904.985 635.712C898.034 634.297 893.128 633.538 892.416 629.5C891.721 625.561 894.687 622.804 900.104 621.849C905.816 620.842 910.693 622.013 916.161 624.806L922.981 612.23C915.451 606.958 905.916 605.288 897.447 606.781C881.887 609.525 872.594 621.318 874.764 633.628C876.639 644.264 884.957 649.397 893.177 651.096L903.227 653.385C909.999 654.933 914.28 655.6 915.026 659.835C915.721 663.774 913.102 666.774 906.602 667.92C900.792 668.945 893.459 667.09 887.458 663.579L879.647 677.446C888.463 683.101 899.33 684.84 908.883 683.156Z" fill="#e7f5ff"/>
<path d="M971.292 670.73L998.965 665.851C1014.92 663.038 1026.44 654.101 1023.8 639.132C1022.08 629.383 1015.5 624.857 1007.76 624.19L1007.7 623.796C1013.2 620.489 1015.6 612.756 1014.45 606.256C1011.97 592.174 999.144 590.272 983.978 592.946L958.373 597.46L971.292 670.73ZM981.123 623.404L978.363 607.746L985.65 606.461C993.036 605.159 996.865 606.717 997.785 611.937C998.671 616.959 995.896 620.8 988.411 622.119L981.123 623.404ZM986.541 654.13L983.415 636.404L992.18 634.858C1000.75 633.348 1005.4 634.964 1006.46 640.972C1007.57 647.275 1003.78 651.092 995.306 652.585L986.541 654.13Z" fill="#e7f5ff"/>
<path d="M1039.77 658.657L1057.39 655.549L1044.48 582.279L1026.85 585.387L1039.77 658.657Z" fill="#e7f5ff"/>
<path d="M1074.2 652.586L1121.76 644.199L1119.16 629.427L1089.22 634.706L1086.48 619.146L1111 614.822L1108.39 600.05L1083.87 604.374L1081.48 590.783L1110.33 585.696L1107.76 571.121L1061.28 579.316L1074.2 652.586Z" fill="#e7f5ff"/>
<path d="M1136.23 641.649L1152.97 638.697L1148.68 614.372C1147.12 605.509 1143.87 595.724 1141.64 587.689L1142.13 587.603L1152.15 602.387L1176.51 634.547L1194.43 631.387L1181.51 558.117L1164.77 561.069L1169.04 585.295C1170.59 594.06 1173.82 604.354 1176.18 611.961L1175.69 612.047L1165.63 597.066L1141.23 565.219L1123.31 568.379L1136.23 641.649Z" fill="#e7f5ff"/>
<path d="M1244.82 591.125L1245.31 584.643C1245.89 577.025 1246.35 568.11 1246.77 560.116L1247.16 560.047C1250.45 567.184 1253.87 575.619 1257.12 582.559L1259.79 588.485L1244.82 591.125ZM1272.74 617.579L1291.26 614.315L1255.59 545.056L1234.51 548.772L1224.68 626.053L1242.61 622.892L1243.87 605.306L1265.54 601.485L1272.74 617.579Z" fill="#e7f5ff"/>
<path d="M1298.95 612.958L1315.69 610.006L1311.41 585.681C1309.84 576.818 1306.59 567.033 1304.36 558.998L1304.86 558.911L1314.88 573.696L1339.23 605.856L1357.15 602.695L1344.24 529.426L1327.49 532.377L1331.77 556.604C1333.31 565.369 1336.55 575.663 1338.9 583.269L1338.41 583.356L1328.36 568.374L1303.96 536.527L1286.03 539.688L1298.95 612.958Z" fill="#e7f5ff"/>
<path d="M1407.39 595.259C1417.64 593.453 1425.98 587.818 1430.24 581.991L1424.19 547.719L1396.91 552.529L1399.45 566.907L1411.07 564.859L1413.15 576.676C1411.79 578.136 1409.15 579.311 1406.49 579.78C1392.9 582.176 1384.91 574.853 1382.34 560.278C1379.82 545.998 1386.11 536.157 1396.94 534.247C1403.05 533.17 1407.32 534.955 1411.44 537.58L1418.82 524.704C1412.91 520.567 1404.43 517.391 1393.69 519.284C1374.1 522.739 1360.11 539.623 1364.42 564.046C1368.8 588.864 1387.01 598.853 1407.39 595.259Z" fill="#e7f5ff"/>
<path d="M1446.39 586.962L1492.47 578.836L1489.87 564.064L1461.41 569.082L1451.09 510.584L1433.47 513.693L1446.39 586.962Z" fill="#e7f5ff"/>
<path d="M1516.03 543.306L1516.51 536.824C1517.1 529.206 1517.56 520.291 1517.98 512.297L1518.37 512.228C1521.66 519.365 1525.08 527.8 1528.33 534.74L1531 540.667L1516.03 543.306ZM1543.95 569.76L1562.46 566.496L1526.79 497.237L1505.72 500.953L1495.89 578.234L1513.81 575.073L1515.08 557.487L1536.74 553.667L1543.95 569.76Z" fill="#e7f5ff"/>
<path d="M1570.16 565.138L1587.79 562.03L1574.87 488.76L1557.24 491.869L1570.16 565.138Z" fill="#e7f5ff"/>
<path d="M1627.58 556.435C1645.31 553.31 1653.66 540.77 1651.5 528.558C1649.68 518.217 1643.19 513.067 1633.49 511.02L1623.68 508.991C1616.73 507.577 1611.83 506.818 1611.11 502.78C1610.42 498.841 1613.39 496.084 1618.8 495.129C1624.51 494.121 1629.39 495.292 1634.86 498.085L1641.68 485.51C1634.15 480.237 1624.62 478.568 1616.15 480.061C1600.59 482.804 1591.29 494.597 1593.46 506.907C1595.34 517.543 1603.66 522.677 1611.88 524.376L1621.93 526.665C1628.7 528.213 1632.98 528.88 1633.73 533.114C1634.42 537.054 1631.8 540.054 1625.3 541.2C1619.49 542.224 1612.16 540.37 1606.16 536.858L1598.35 550.725C1607.16 556.38 1618.03 558.12 1627.58 556.435Z" fill="#e7f5ff"/>
<path d="M1698.14 504.394C1695.64 490.213 1700.07 480.8 1709.72 479.098C1719.37 477.397 1726.85 484.708 1729.35 498.89C1732.05 514.154 1727.58 523.978 1717.93 525.68C1708.28 527.381 1700.83 519.658 1698.14 504.394ZM1755.84 537.984C1753.72 539.171 1750.97 540.265 1747.82 540.821C1741.91 541.863 1734.98 541.155 1730.74 536.723C1744.08 530.005 1750.72 515.228 1747.28 495.729C1743.06 471.798 1727.05 460.506 1707.06 464.031C1687.07 467.556 1675.88 483.542 1680.11 507.572C1683.76 528.253 1696.18 539.973 1712.35 540.677C1719.74 551.458 1732.34 557.867 1748.29 555.054C1754.1 554.029 1758.66 552.211 1761.16 550.248L1755.84 537.984Z" fill="#e7f5ff"/>
<path d="M1797 526.564C1816.5 523.126 1824.39 510.261 1820.03 485.542L1813.19 446.741L1796.25 449.727L1803.42 490.4C1805.87 504.286 1802.3 509.991 1794.33 511.398C1786.25 512.822 1781.25 508.627 1778.8 494.741L1771.63 454.068L1754.1 457.159L1760.94 495.961C1765.3 520.679 1777.4 530.019 1797 526.564Z" fill="#e7f5ff"/>
<path d="M1842.52 517.116L1890.09 508.729L1887.48 493.957L1857.54 499.236L1854.8 483.676L1879.32 479.352L1876.72 464.58L1852.2 468.904L1849.8 455.313L1878.65 450.226L1876.08 435.65L1829.6 443.846L1842.52 517.116Z" fill="#e7f5ff"/>
<path d="M1927.54 503.546C1945.27 500.421 1953.62 487.88 1951.47 475.669C1949.64 465.328 1943.15 460.178 1933.45 458.131L1923.65 456.102C1916.7 454.688 1911.79 453.928 1911.08 449.891C1910.38 445.951 1913.35 443.194 1918.77 442.239C1924.48 441.232 1929.35 442.403 1934.82 445.196L1941.64 432.621C1934.11 427.348 1924.58 425.678 1916.11 427.172C1900.55 429.915 1891.26 441.708 1893.43 454.018C1895.3 464.654 1903.62 469.788 1911.84 471.486L1921.89 473.776C1928.66 475.324 1932.94 475.991 1933.69 480.225C1934.38 484.164 1931.76 487.165 1925.26 488.311C1919.45 489.335 1912.12 487.48 1906.12 483.969L1898.31 497.836C1907.12 503.491 1917.99 505.231 1927.54 503.546Z" fill="#e7f5ff"/>
<path d="M4.37004 1023.99L21.9981 1020.89L17.7092 996.561L26.277 995.05C41.7385 992.324 53.876 982.264 50.8026 964.832C47.6076 946.712 33.3055 943.344 17.1547 946.192L-8.54884 950.724L4.37004 1023.99ZM15.2608 982.675L11.5276 961.501L18.7167 960.234C27.186 958.74 32.3646 960.468 33.6669 967.854C34.9345 975.043 31.5102 979.81 22.9424 981.32L15.2608 982.675Z" fill="#e7f5ff"/>
<path d="M79.137 949.581L87.0155 948.192C95.3864 946.716 100.217 948.199 101.433 955.093C102.648 961.987 98.8592 966.412 90.4883 967.888L82.6098 969.277L79.137 949.581ZM131.265 1001.62L109.795 975.45C116.753 970.568 120.56 962.788 118.667 952.054C115.542 934.328 101.604 931.302 85.9459 934.063L59.0606 938.803L71.9795 1012.07L89.6076 1008.96L85.0582 983.162L93.5275 981.669L111.569 1005.09L131.265 1001.62Z" fill="#e7f5ff"/>
<path d="M141.705 999.779L189.271 991.392L186.666 976.62L156.728 981.899L153.985 966.339L178.506 962.015L175.902 947.243L151.38 951.567L148.984 937.976L177.839 932.888L175.269 918.313L128.786 926.509L141.705 999.779Z" fill="#e7f5ff"/>
<path d="M203.736 988.841L220.478 985.89L216.189 961.565C214.626 952.702 211.378 942.917 209.149 934.882L209.641 934.795L219.661 949.58L244.015 981.74L261.938 978.579L249.02 905.31L232.278 908.261L236.549 932.488C238.095 941.252 241.331 951.547 243.688 959.153L243.196 959.24L233.141 944.258L208.741 912.411L190.817 915.572L203.736 988.841Z" fill="#e7f5ff"/>
<path d="M278.943 975.581L301.003 971.692C322.373 967.924 335.114 953.797 330.617 928.29C326.119 902.784 309.454 894.654 287.099 898.595L266.024 902.311L278.943 975.581ZM294.071 958.292L286.118 913.187L288.482 912.771C300.299 910.687 309.521 914.037 312.595 931.468C315.668 948.899 308.252 955.791 296.434 957.875L294.071 958.292Z" fill="#e7f5ff"/>
<path d="M357.846 900.439L365.724 899.05C374.095 897.574 378.926 899.058 380.142 905.951C381.357 912.845 377.568 917.27 369.197 918.746L361.318 920.135L357.846 900.439ZM409.974 952.478L388.503 926.308C395.461 921.426 399.268 913.647 397.376 902.913C394.25 885.186 380.313 882.16 364.655 884.921L337.769 889.661L350.688 962.931L368.316 959.823L363.767 934.021L372.236 932.528L390.277 955.951L409.974 952.478Z" fill="#e7f5ff"/>
<path d="M420.413 950.637L467.98 942.25L465.375 927.478L435.437 932.757L432.693 917.197L457.215 912.873L454.61 898.101L430.089 902.425L427.693 888.834L456.547 883.747L453.977 869.172L407.495 877.367L420.413 950.637Z" fill="#e7f5ff"/>
<path d="M536.214 931.641C545.766 929.957 553.298 924.872 558.235 916.589L547.033 907.191C544.246 911.541 540.039 915.329 534.229 916.353C523.889 918.177 515.699 910.888 513.129 896.313C510.611 882.033 516.898 872.192 526.352 870.525C531.571 869.605 535.829 871.291 540.063 873.997L547.341 861.138C541.415 856.902 532.952 853.825 523.4 855.51C504.787 858.791 490.905 875.658 495.211 900.081C499.587 924.899 517.601 934.923 536.214 931.641Z" fill="#e7f5ff"/>
<path d="M581.519 890.854L582.001 884.372C582.587 876.755 583.046 867.84 583.464 859.846L583.858 859.776C587.147 866.914 590.564 875.348 593.819 882.289L596.488 888.215L581.519 890.854ZM609.437 917.309L627.951 914.044L592.283 844.786L571.208 848.501L561.378 925.782L579.302 922.622L580.567 905.035L602.233 901.215L609.437 917.309Z" fill="#e7f5ff"/>
<path d="M635.648 912.687L653.276 909.579L648.987 885.254L657.555 883.744C673.016 881.017 685.154 870.957 682.081 853.526C678.886 835.405 664.584 832.038 648.433 834.885L622.729 839.417L635.648 912.687ZM646.539 871.368L642.806 850.195L649.995 848.927C658.464 847.434 663.643 849.161 664.945 856.547C666.212 863.736 662.788 868.503 654.22 870.014L646.539 871.368Z" fill="#e7f5ff"/>
<path d="M714.141 867.471L714.623 860.989C715.209 853.371 715.668 844.456 716.086 836.462L716.48 836.392C719.77 843.53 723.186 851.965 726.441 858.905L729.11 864.831L714.141 867.471ZM742.059 893.925L760.573 890.661L724.905 821.402L703.831 825.118L694 902.399L711.924 899.238L713.189 881.651L734.855 877.831L742.059 893.925Z" fill="#e7f5ff"/>
<path d="M799.535 885.212C809.087 883.528 816.619 878.443 821.556 870.16L810.354 860.762C807.567 865.112 803.36 868.9 797.55 869.925C787.21 871.748 779.02 864.459 776.45 849.884C773.932 835.605 780.219 825.763 789.673 824.096C794.892 823.176 799.15 824.862 803.384 827.568L810.662 814.709C804.736 810.474 796.273 807.397 786.721 809.081C768.108 812.363 754.226 829.229 758.532 853.653C762.908 878.47 780.922 888.494 799.535 885.212Z" fill="#e7f5ff"/>
<path d="M833.956 877.722L851.584 874.614L838.665 801.344L821.037 804.452L833.956 877.722Z" fill="#e7f5ff"/>
<path d="M882.567 869.151L900.195 866.042L889.846 807.348L909.74 803.84L907.17 789.265L849.854 799.371L852.424 813.946L872.218 810.456L882.567 869.151Z" fill="#e7f5ff"/>
<path d="M931.379 860.544L978.946 852.157L976.341 837.385L946.403 842.664L943.659 827.104L968.181 822.78L965.576 808.008L941.055 812.332L938.658 798.741L967.513 793.654L964.943 779.078L918.46 787.274L931.379 860.544ZM940.851 780.077L959.761 762.933L948.409 753.257L931.624 772.667L940.851 780.077Z" fill="#e7f5ff"/>
<path d="M1015.92 845.639L1033.54 842.531L1029.25 818.206L1037.82 816.695C1053.28 813.969 1065.42 803.909 1062.35 786.478C1059.15 768.357 1044.85 764.989 1028.7 767.837L1003 772.369L1015.92 845.639ZM1026.81 804.32L1023.07 783.147L1030.26 781.879C1038.73 780.386 1043.91 782.113 1045.21 789.499C1046.48 796.688 1043.06 801.455 1034.49 802.966L1026.81 804.32Z" fill="#e7f5ff"/>
<path d="M1090.68 771.226L1098.56 769.837C1106.93 768.361 1111.76 769.844 1112.98 776.738C1114.19 783.632 1110.4 788.057 1102.03 789.533L1094.15 790.922L1090.68 771.226ZM1142.81 823.265L1121.34 797.095C1128.3 792.213 1132.1 784.434 1130.21 773.699C1127.09 755.973 1113.15 752.947 1097.49 755.708L1070.61 760.448L1083.52 833.718L1101.15 830.61L1096.6 804.808L1105.07 803.315L1123.11 826.738L1142.81 823.265Z" fill="#e7f5ff"/>
<path d="M1183.73 817.472C1203.72 813.947 1214.77 797.173 1210.54 773.143C1206.32 749.213 1190.31 737.92 1170.32 741.445C1150.33 744.97 1139.14 760.956 1143.37 784.986C1147.61 809.015 1163.73 820.997 1183.73 817.472ZM1181.05 802.306C1171.4 804.008 1163.91 796.088 1161.39 781.808C1158.89 767.627 1163.33 758.214 1172.98 756.512C1182.63 754.811 1190.11 762.122 1192.61 776.304C1195.13 790.583 1190.7 800.604 1181.05 802.306Z" fill="#e7f5ff"/>
<path d="M1230.67 807.774L1258.34 802.894C1274.3 800.081 1285.82 791.145 1283.18 776.176C1281.46 766.426 1274.88 761.901 1267.14 761.234L1267.07 760.84C1272.58 757.533 1274.98 749.8 1273.83 743.3C1271.35 729.217 1258.52 727.315 1243.36 729.989L1217.75 734.504L1230.67 807.774ZM1240.5 760.448L1237.74 744.789L1245.03 743.504C1252.41 742.202 1256.24 743.761 1257.16 748.98C1258.05 754.003 1255.27 757.843 1247.79 759.163L1240.5 760.448ZM1245.92 791.174L1242.79 773.447L1251.56 771.902C1260.13 770.391 1264.78 772.008 1265.84 778.015C1266.95 784.318 1263.15 788.135 1254.68 789.628L1245.92 791.174Z" fill="#e7f5ff"/>
<path d="M1299.14 795.7L1345.23 787.574L1342.63 772.802L1314.17 777.82L1303.85 719.322L1286.22 722.43L1299.14 795.7Z" fill="#e7f5ff"/>
<path d="M1357.91 785.339L1405.47 776.953L1402.87 762.181L1372.93 767.459L1370.19 751.899L1394.71 747.576L1392.1 732.803L1367.58 737.127L1365.18 723.537L1394.04 718.449L1391.47 703.874L1344.99 712.07L1357.91 785.339ZM1369.64 704.473L1375.78 694.354L1353.37 681.855L1346.01 694.83L1369.64 704.473Z" fill="#e7f5ff"/>
<path d="M1419.94 774.402L1435.69 771.624L1431.27 746.511C1429.98 739.224 1426.67 728.535 1424.52 721.503L1424.91 721.433L1433.91 737.921L1448.58 762.954L1458.24 761.252L1463.36 732.729L1466.38 714.123L1466.77 714.053C1467.15 721.399 1467.7 732.573 1468.98 739.861L1473.41 764.973L1489.46 762.143L1476.55 688.873L1457.44 692.242L1451.79 725.834C1451.16 730.312 1450.79 735.149 1450.11 739.939L1449.62 740.026C1447.44 735.739 1445.44 731.319 1443.22 727.344L1426.02 697.781L1407.02 701.132L1419.94 774.402Z" fill="#e7f5ff"/>
<path d="M1506.3 759.175L1553.87 750.788L1551.26 736.016L1521.32 741.294L1518.58 725.734L1543.1 721.411L1540.5 706.639L1515.98 710.962L1513.58 697.372L1542.43 692.284L1539.86 677.709L1493.38 685.905L1506.3 759.175Z" fill="#e7f5ff"/>
<path d="M1597.99 681.777L1605.87 680.388C1614.24 678.912 1619.07 680.396 1620.29 687.29C1621.5 694.183 1617.72 698.608 1609.34 700.084L1601.47 701.473L1597.99 681.777ZM1650.12 733.816L1628.65 707.647C1635.61 702.764 1639.42 694.985 1637.52 684.251C1634.4 666.524 1620.46 663.498 1604.8 666.259L1577.92 671L1590.84 744.269L1608.46 741.161L1603.91 715.359L1612.38 713.866L1630.43 737.289L1650.12 733.816Z" fill="#e7f5ff"/>
<path d="M1660.56 731.975L1678.19 728.867L1665.27 655.598L1647.64 658.706L1660.56 731.975Z" fill="#e7f5ff"/>
<path d="M1702.15 663.413L1710.03 662.024C1718.4 660.548 1723.23 662.031 1724.44 668.925C1725.66 675.819 1721.87 680.244 1713.5 681.72L1705.62 683.109L1702.15 663.413ZM1754.28 715.452L1732.81 689.282C1739.76 684.4 1743.57 676.621 1741.68 665.886C1738.55 648.16 1724.62 645.134 1708.96 647.895L1682.07 652.635L1694.99 725.905L1712.62 722.797L1708.07 696.995L1716.54 695.501L1734.58 718.925L1754.28 715.452Z" fill="#e7f5ff"/>
<path d="M1764.72 713.611L1812.28 705.224L1809.68 690.452L1779.74 695.731L1777 680.171L1801.52 675.847L1798.91 661.075L1774.39 665.399L1772 651.808L1800.85 646.72L1798.28 632.145L1751.8 640.341L1764.72 713.611Z" fill="#e7f5ff"/>
<path d="M1860.14 665.41L1860.62 658.928C1861.2 651.31 1861.66 642.395 1862.08 634.401L1862.48 634.332C1865.76 641.469 1869.18 649.904 1872.44 656.844L1875.1 662.771L1860.14 665.41ZM1888.05 691.864L1906.57 688.6L1870.9 619.341L1849.83 623.057L1839.99 700.338L1857.92 697.178L1859.18 679.591L1880.85 675.771L1888.05 691.864Z" fill="#e7f5ff"/>
<path d="M1943.86 683.447C1963.35 680.009 1971.24 667.144 1966.88 642.425L1960.04 603.624L1943.1 606.61L1950.27 647.283C1952.72 661.169 1949.16 666.874 1941.18 668.281C1933.11 669.705 1928.1 665.51 1925.65 651.624L1918.48 610.952L1900.95 614.042L1907.79 652.844C1912.15 677.563 1924.26 686.902 1943.86 683.447Z" fill="#e7f5ff"/>
<path d="M277.81 1158.56L296.62 1155.24L300.405 1139.85C301.402 1135.71 302.3 1131.6 303.274 1126.75L303.668 1126.68C306.436 1130.87 308.788 1134.41 311.238 1137.94L320.551 1151.02L340.148 1147.57L313.448 1114.2L325.949 1074.52L307.336 1077.8L304.328 1091.84C303.458 1095.55 302.56 1099.67 301.719 1104.69L301.325 1104.76C298.424 1100.39 296.072 1096.85 293.889 1093.68L285.671 1081.62L266.073 1085.08L291.348 1117.28L277.81 1158.56Z" fill="#e7f5ff"/>
<path d="M402.803 1137.94C422.795 1134.42 433.85 1117.64 429.613 1093.61C425.393 1069.68 409.389 1058.39 389.398 1061.91C369.406 1065.44 358.212 1081.42 362.449 1105.45C366.686 1129.48 382.811 1141.47 402.803 1137.94ZM400.129 1122.77C390.478 1124.48 382.989 1116.56 380.471 1102.28C377.971 1088.1 382.403 1078.68 392.055 1076.98C401.706 1075.28 409.189 1082.59 411.689 1096.77C414.207 1111.05 409.78 1121.07 400.129 1122.77Z" fill="#e7f5ff"/>
<path d="M479.336 1124.45C498.835 1121.01 506.721 1108.14 502.362 1083.42L495.521 1044.62L478.582 1047.61L485.754 1088.28C488.202 1102.17 484.639 1107.87 476.662 1109.28C468.586 1110.7 463.582 1106.51 461.133 1092.62L453.962 1051.95L436.432 1055.04L443.274 1093.84C447.632 1118.56 459.738 1127.9 479.336 1124.45Z" fill="#e7f5ff"/>
<path d="M524.856 1115L542.484 1111.89L529.565 1038.62L511.937 1041.73L524.856 1115Z" fill="#e7f5ff"/>
<path d="M613.055 1100.87C622.608 1099.18 630.139 1094.1 635.076 1085.82L623.874 1076.42C621.087 1080.77 616.881 1084.56 611.07 1085.58C600.73 1087.4 592.54 1080.12 589.97 1065.54C587.452 1051.26 593.739 1041.42 603.193 1039.75C608.412 1038.83 612.67 1040.52 616.904 1043.22L624.182 1030.37C618.256 1026.13 609.793 1023.05 600.241 1024.74C581.628 1028.02 567.746 1044.89 572.052 1069.31C576.428 1094.13 594.442 1104.15 613.055 1100.87Z" fill="#e7f5ff"/>
<path d="M647.476 1093.38L665.104 1090.27L659.791 1060.13L683.919 1055.88L689.232 1086.02L706.663 1082.94L693.745 1009.67L676.313 1012.75L681.227 1040.62L657.1 1044.87L652.186 1017L634.558 1020.11L647.476 1093.38Z" fill="#e7f5ff"/>
<path d="M723.741 1079.93L741.369 1076.82L728.451 1003.55L710.823 1006.66L723.741 1079.93Z" fill="#e7f5ff"/>
<path d="M758.171 1073.86L774.913 1070.91L770.624 1046.58C769.061 1037.72 765.813 1027.94 763.584 1019.9L764.076 1019.81L774.096 1034.6L798.45 1066.76L816.373 1063.6L803.455 990.329L786.713 993.281L790.984 1017.51C792.53 1026.27 795.766 1036.57 798.123 1044.17L797.631 1044.26L787.576 1029.28L763.176 997.431L745.252 1000.59L758.171 1073.86Z" fill="#e7f5ff"/>
<path d="M833.378 1060.6L880.945 1052.21L878.34 1037.44L848.402 1042.72L845.658 1027.16L870.18 1022.84L867.575 1008.06L843.054 1012.39L840.657 998.797L869.512 993.71L866.942 979.134L820.459 987.33L833.378 1060.6Z" fill="#e7f5ff"/>
<path d="M918.402 1047.03C936.128 1043.9 944.478 1031.36 942.325 1019.15C940.501 1008.81 934.008 1003.66 924.306 1001.62L914.505 999.587C907.553 998.172 902.647 997.412 901.935 993.375C901.24 989.435 904.207 986.679 909.623 985.724C915.335 984.716 920.212 985.887 925.68 988.68L932.501 976.105C924.971 970.832 915.436 969.163 906.966 970.656C891.407 973.399 882.113 985.192 884.284 997.502C886.159 1008.14 894.477 1013.27 902.696 1014.97L912.747 1017.26C919.518 1018.81 923.799 1019.47 924.546 1023.71C925.24 1027.65 922.622 1030.65 916.122 1031.8C910.311 1032.82 902.978 1030.96 896.977 1027.45L889.166 1041.32C897.982 1046.98 908.849 1048.71 918.402 1047.03Z" fill="#e7f5ff"/>
<path d="M958.307 1038.57L1005.87 1030.19L1003.27 1015.41L973.33 1020.69L970.587 1005.13L995.109 1000.81L992.504 986.037L967.982 990.36L965.586 976.77L994.441 971.682L991.871 957.107L945.388 965.303L958.307 1038.57Z" fill="#e7f5ff"/>
<path d="M1057.02 1021.17L1074.65 1018.06L1064.3 959.364L1084.2 955.857L1081.63 941.282L1024.31 951.388L1026.88 965.963L1046.67 962.473L1057.02 1021.17Z" fill="#e7f5ff"/>
<path d="M1105.84 1012.56L1123.46 1009.45L1118.15 979.317L1142.28 975.063L1147.59 1005.2L1165.02 1002.12L1152.1 928.855L1134.67 931.929L1139.59 959.799L1115.46 964.053L1110.55 936.183L1092.92 939.291L1105.84 1012.56Z" fill="#e7f5ff"/>
<path d="M1192.98 965.818L1193.47 959.336C1194.05 951.719 1194.51 942.803 1194.93 934.809L1195.32 934.74C1198.61 941.877 1202.03 950.312 1205.28 957.252L1207.95 963.179L1192.98 965.818ZM1220.9 992.272L1239.42 989.008L1203.75 919.749L1182.67 923.465L1172.84 1000.75L1190.77 997.586L1192.03 979.999L1213.7 976.179L1220.9 992.272Z" fill="#e7f5ff"/>
<path d="M1247.11 987.651L1263.86 984.699L1259.57 960.374C1258 951.511 1254.76 941.726 1252.53 933.691L1253.02 933.604L1263.04 948.389L1287.39 980.549L1305.32 977.389L1292.4 904.119L1275.66 907.071L1279.93 931.297C1281.47 940.062 1284.71 950.356 1287.07 957.963L1286.57 958.049L1276.52 943.068L1252.12 911.221L1234.19 914.381L1247.11 987.651Z" fill="#e7f5ff"/>
<path d="M1322.32 974.39L1339.95 971.282L1336.56 952.078L1342.63 939.839L1365.16 966.837L1384.46 963.433L1350.42 924.147L1367.41 890.893L1348.1 894.296L1332.43 926.914L1332.13 926.966L1327.03 898.012L1309.4 901.121L1322.32 974.39Z" fill="#e7f5ff"/>
<path d="M1427.25 955.889L1444.78 952.798L1440.22 926.897L1454.02 875.621L1435.61 878.868L1432.37 896.194C1431.27 902.073 1430.2 907.542 1429.14 913.618L1428.75 913.688C1425.67 908.341 1422.9 903.55 1419.96 898.382L1410.99 883.209L1392.28 886.508L1422.69 929.988L1427.25 955.889Z" fill="#e7f5ff"/>
<path d="M1504.94 943.612C1524.93 940.087 1535.99 923.313 1531.75 899.283C1527.53 875.353 1511.53 864.06 1491.54 867.585C1471.55 871.11 1460.35 887.097 1464.59 911.126C1468.83 935.155 1484.95 947.137 1504.94 943.612ZM1502.27 928.446C1492.62 930.148 1485.13 922.228 1482.61 907.948C1480.11 893.767 1484.54 884.354 1494.19 882.652C1503.85 880.951 1511.33 888.262 1513.83 902.444C1516.35 916.723 1511.92 926.744 1502.27 928.446Z" fill="#e7f5ff"/>
<path d="M1581.48 930.118C1600.97 926.68 1608.86 913.815 1604.5 889.096L1597.66 850.295L1580.72 853.281L1587.89 893.954C1590.34 907.84 1586.78 913.545 1578.8 914.952C1570.73 916.376 1565.72 912.181 1563.27 898.295L1556.1 857.623L1538.57 860.713L1545.41 899.515C1549.77 924.234 1561.88 933.573 1581.48 930.118Z" fill="#e7f5ff"/>
<path d="M1649.5 916.702L1667.13 913.594L1661.82 883.459L1685.94 879.205L1691.26 909.34L1708.69 906.266L1695.77 832.997L1678.34 836.07L1683.25 863.94L1659.12 868.194L1654.21 840.324L1636.58 843.432L1649.5 916.702Z" fill="#e7f5ff"/>
<path d="M1725.77 903.255L1773.33 894.868L1770.73 880.096L1740.79 885.375L1738.05 869.815L1762.57 865.491L1759.96 850.719L1735.44 855.043L1733.04 841.452L1761.9 836.365L1759.33 821.79L1712.85 829.985L1725.77 903.255Z" fill="#e7f5ff"/>
<path d="M1787.8 892.318L1833.89 884.192L1831.28 869.419L1802.82 874.438L1792.51 815.94L1774.88 819.048L1787.8 892.318Z" fill="#e7f5ff"/>
<path d="M1846.56 881.957L1892.65 873.831L1890.04 859.059L1861.58 864.077L1851.27 805.579L1833.64 808.687L1846.56 881.957Z" fill="#e7f5ff"/>
<path d="M1935.8 867.644C1955.79 864.119 1966.84 847.345 1962.61 823.316C1958.39 799.385 1942.38 788.092 1922.39 791.617C1902.4 795.142 1891.21 811.129 1895.44 835.158C1899.68 859.187 1915.81 871.169 1935.8 867.644ZM1933.12 852.478C1923.47 854.18 1915.98 846.26 1913.46 831.98C1910.96 817.799 1915.4 808.386 1925.05 806.685C1934.7 804.983 1942.18 812.295 1944.68 826.476C1947.2 840.756 1942.77 850.777 1933.12 852.478Z" fill="#e7f5ff"/>
<path d="M1350.5 1152.2L1368.13 1149.09L1355.21 1075.82L1337.58 1078.93L1350.5 1152.2Z" fill="#e7f5ff"/>
<path d="M1407.92 1143.5C1425.65 1140.37 1434 1127.83 1431.84 1115.62C1430.02 1105.28 1423.53 1100.13 1413.82 1098.08L1404.02 1096.05C1397.07 1094.64 1392.17 1093.88 1391.45 1089.84C1390.76 1085.9 1393.73 1083.14 1399.14 1082.19C1404.85 1081.18 1409.73 1082.35 1415.2 1085.15L1422.02 1072.57C1414.49 1067.3 1404.95 1065.63 1396.49 1067.12C1380.93 1069.86 1371.63 1081.66 1373.8 1093.97C1375.68 1104.6 1384 1109.74 1392.21 1111.44L1402.27 1113.73C1409.04 1115.27 1413.32 1115.94 1414.06 1120.17C1414.76 1124.11 1412.14 1127.11 1405.64 1128.26C1399.83 1129.28 1392.5 1127.43 1386.5 1123.92L1378.68 1137.79C1387.5 1143.44 1398.37 1145.18 1407.92 1143.5Z" fill="#e7f5ff"/>
<path d="M1493.32 1128.44C1511.05 1125.31 1519.4 1112.77 1517.24 1100.56C1515.42 1090.22 1508.93 1085.07 1499.23 1083.02L1489.42 1080.99C1482.47 1079.58 1477.57 1078.82 1476.85 1074.78C1476.16 1070.84 1479.13 1068.09 1484.54 1067.13C1490.26 1066.12 1495.13 1067.29 1500.6 1070.09L1507.42 1057.51C1499.89 1052.24 1490.36 1050.57 1481.89 1052.06C1466.33 1054.81 1457.03 1066.6 1459.2 1078.91C1461.08 1089.55 1469.4 1094.68 1477.62 1096.38L1487.67 1098.67C1494.44 1100.22 1498.72 1100.88 1499.47 1105.12C1500.16 1109.06 1497.54 1112.06 1491.04 1113.2C1485.23 1114.23 1477.9 1112.37 1471.9 1108.86L1464.09 1122.73C1472.9 1128.38 1483.77 1130.12 1493.32 1128.44Z" fill="#e7f5ff"/>
<path d="M1533.23 1119.98L1579.32 1111.85L1576.71 1097.08L1548.25 1102.1L1537.94 1043.6L1520.31 1046.71L1533.23 1119.98Z" fill="#e7f5ff"/>
<path d="M1591.99 1109.62L1639.55 1101.23L1636.95 1086.46L1607.01 1091.74L1604.27 1076.18L1628.79 1071.86L1626.19 1057.08L1601.66 1061.41L1599.27 1047.82L1628.12 1042.73L1625.55 1028.15L1579.07 1036.35L1591.99 1109.62Z" fill="#e7f5ff"/>
<path d="M1654.02 1098.68L1701.59 1090.3L1698.98 1075.52L1669.04 1080.8L1666.3 1065.24L1690.82 1060.92L1688.22 1046.15L1663.7 1050.47L1661.3 1036.88L1690.15 1031.79L1687.58 1017.22L1641.1 1025.41L1654.02 1098.68Z" fill="#e7f5ff"/>
<path d="M1716.05 1087.74L1733.68 1084.64L1729.39 1060.31L1737.96 1058.8C1753.42 1056.07 1765.56 1046.01 1762.48 1028.58C1759.29 1010.46 1744.99 1007.1 1728.84 1009.94L1703.13 1014.47L1716.05 1087.74ZM1726.94 1046.43L1723.21 1025.25L1730.4 1023.98C1738.87 1022.49 1744.05 1024.22 1745.35 1031.6C1746.62 1038.79 1743.19 1043.56 1734.62 1045.07L1726.94 1046.43Z" fill="#e7f5ff"/>
<path d="M1813.32 1009.36L1821.2 1007.97C1829.57 1006.5 1834.4 1007.98 1835.62 1014.88C1836.83 1021.77 1833.04 1026.19 1824.67 1027.67L1816.8 1029.06L1813.32 1009.36ZM1865.45 1061.4L1843.98 1035.23C1850.94 1030.35 1854.75 1022.57 1852.85 1011.84C1849.73 994.111 1835.79 991.085 1820.13 993.846L1793.25 998.586L1806.17 1071.86L1823.79 1068.75L1819.24 1042.95L1827.71 1041.45L1845.75 1064.88L1865.45 1061.4Z" fill="#e7f5ff"/>
<path d="M1886.77 1026.27L1887.26 1019.78C1887.84 1012.17 1888.3 1003.25 1888.72 995.257L1889.11 995.188C1892.4 1002.33 1895.82 1010.76 1899.07 1017.7L1901.74 1023.63L1886.77 1026.27ZM1914.69 1052.72L1933.21 1049.46L1897.54 980.197L1876.46 983.913L1866.63 1061.19L1884.56 1058.03L1885.82 1040.45L1907.49 1036.63L1914.69 1052.72Z" fill="#e7f5ff"/>
<path d="M-7.81581 31.2286L-10.9268 32.5894L-22.5091 49.2537C-27.4803 55.6136 -33.8302 62.2164 -39.9656 67.1568L-32.4817 109.602C-32.1865 111.276 -32.8875 111.908 -35.0541 112.29C-37.3192 112.689 -45.6901 114.165 -52.0449 114.981C-49.1027 118.422 -45.315 124.355 -43.7805 128.45C-34.6044 126.934 -27.2704 125.336 -22.1375 122.197C-16.9872 119.157 -15.8918 115.003 -17.2462 107.322L-23.5493 71.5734C-12.5763 61.8199 -2.23993 49.0308 5.11864 37.7822L-7.81581 31.2286Z" fill="#e7f5ff"/>
</g>
<defs>
<clipPath id="clip0">
<rect width="1920" height="1080" fill="white"/>
</clipPath>
</defs>
</svg>
